<?xml version="1.0" encoding="UTF-8"?>
<svg width="24px" height="24px" viewBox="0 0 24 24" version="1.1" xmlns="http://www.w3.org/2000/svg" xmlns:xlink="http://www.w3.org/1999/xlink">
    <!-- Generator: Sketch 53.2 (72643) - https://sketchapp.com -->
    <title>icon_profile copy 5</title>
    <desc>Created with Sketch.</desc>
    <g id="icon_profile-copy-5" stroke="none" stroke-width="1" fill="none" fill-rule="evenodd">
        <g id="baseline-folder_open-24px" transform="translate(-2.000000, -2.000000)">
            <polygon id="Path" points="0 0 28 0 28 28 0 28"></polygon>
            <path d="M23.3333333,7 L14,7 L11.6666667,4.66666667 L4.66666667,4.66666667 C3.38333333,4.66666667 2.345,5.71666667 2.345,7 L2.33333333,21 C2.33333333,22.2833333 3.38333333,23.3333333 4.66666667,23.3333333 L23.3333333,23.3333333 C24.6166667,23.3333333 25.6666667,22.2833333 25.6666667,21 L25.6666667,9.33333333 C25.6666667,8.05 24.6166667,7 23.3333333,7 Z M23.3333333,21 L4.66666667,21 L4.66666667,9.33333333 L23.3333333,9.33333333 L23.3333333,21 Z" id="Shape" fill="#9EA2A2" fill-rule="nonzero"></path>
        </g>
    </g>
</svg>