<?xml version="1.0" encoding="UTF-8"?>
<svg width="24px" height="24px" viewBox="0 0 24 24" version="1.1" xmlns="http://www.w3.org/2000/svg" xmlns:xlink="http://www.w3.org/1999/xlink">
    <!-- Generator: Sketch 53.2 (72643) - https://sketchapp.com -->
    <title>icon_profile copy 4</title>
    <desc>Created with Sketch.</desc>
    <g id="icon_profile-copy-4" stroke="none" stroke-width="1" fill="none" fill-rule="evenodd">
        <g id="baseline-file_copy-24px">
            <polygon id="Path" points="0 0 24 0 24 24 0 24"></polygon>
            <path d="M17.2727273,0 L4.18181818,0 C2.98181818,0 2,0.981818182 2,2.18181818 L2,17.4545455 L4.18181818,17.4545455 L4.18181818,2.18181818 L17.2727273,2.18181818 L17.2727273,0 Z M16.1818182,4.36363636 L22.7272727,10.9090909 L22.7272727,21.8181818 C22.7272727,23.0181818 21.7454545,24 20.5454545,24 L8.53454545,24 C7.33454545,24 6.36363636,23.0181818 6.36363636,21.8181818 L6.37454545,6.54545455 C6.37454545,5.34545455 7.34545455,4.36363636 8.54545455,4.36363636 L16.1818182,4.36363636 Z M15.0909091,12 L21.0909091,12 L15.0909091,6 L15.0909091,12 Z" id="Shape" fill="#9EA2A2" fill-rule="nonzero"></path>
        </g>
    </g>
</svg>