<?xml version="1.0" encoding="UTF-8"?>
<svg width="24px" height="24px" viewBox="0 0 24 24" version="1.1" xmlns="http://www.w3.org/2000/svg" xmlns:xlink="http://www.w3.org/1999/xlink">
    <!-- Generator: Sketch 53.2 (72643) - https://sketchapp.com -->
    <title>icon_profile copy 13</title>
    <desc>Created with Sketch.</desc>
    <g id="icon_profile-copy-13" stroke="none" stroke-width="1" fill="none" fill-rule="evenodd">
        <g id="Group-17" transform="translate(1.000000, 0.000000)">
            <path d="M15.835744,22.0944427 C15.4080107,21.6720427 15.006944,21.275136 14.5898773,20.8635093 C14.4448107,21.3915093 14.293344,21.9418027 14.123744,22.5563093 C14.7328107,22.3920427 15.2822507,22.2436693 15.835744,22.0944427 M20.6602773,17.6112427 C20.1418773,17.0800427 19.608544,16.532736 19.070944,15.9812693 C17.7066773,17.3531093 16.363744,18.7024427 15.0326507,20.0400427 C15.566944,20.5712427 16.1184107,21.120576 16.6122773,21.6112427 C17.9562773,20.2832427 19.3162773,18.9392427 20.6602773,17.6112427 M22.433184,15.9291093 C22.5952107,15.7594027 22.5834773,15.5515093 22.4150507,15.379776 C22.0480107,15.0084693 21.675744,14.640576 21.3002773,14.2768427 C21.1489173,14.1296427 20.9418773,14.093376 20.7936107,14.2320427 C20.3968107,14.605376 20.027744,15.0075093 19.6608107,15.3840427 C20.2113173,15.930176 20.7617173,16.477376 21.3184107,17.0299093 C21.6810773,16.6746027 22.066144,16.310976 22.433184,15.9291093 M22.968544,14.810176 C23.205344,15.046976 23.3290773,15.332736 23.3376107,15.667776 C23.3280107,16.045376 23.160544,16.342976 22.8970773,16.605376 C21.575584,17.920576 20.258144,19.2411093 18.9398507,20.560576 C18.3050773,21.194176 17.6746773,21.8320427 17.0336107,22.4592427 C16.9248107,22.5648427 16.7776107,22.653376 16.6326507,22.694976 C15.771744,22.9435093 14.9046507,23.1684693 14.043744,23.4170027 C13.8817173,23.4640427 13.725984,23.562176 13.5926507,23.667776 C13.3696107,23.8448427 13.1722773,23.8651093 13.0017173,23.6912427 C12.8417173,23.526976 12.862944,23.3040427 13.0208107,23.091776 C13.128544,22.9488427 13.227744,22.784576 13.2768107,22.6139093 C13.5242773,21.7531093 13.749344,20.8859093 13.9946773,20.0240427 C14.030944,19.894976 14.1089173,19.7627093 14.2026773,19.667776 C16.1450773,17.7168427 18.0928107,15.770176 20.040544,13.824576 C20.674144,13.190976 21.3600107,13.194176 21.9914773,13.827776 C22.317984,14.154176 22.6422507,14.4827093 22.968544,14.810176" id="Fill-1" fill="#B0B0B0"></path>
            <path d="M19.0709547,15.981312 C19.6085547,16.5327787 20.141888,17.0800853 20.660288,17.6111787 C19.316288,18.9391787 17.956288,20.2831787 16.612288,21.6111787 C16.1184213,21.1206187 15.5669547,20.5711787 15.0326613,20.0400853 C16.3637547,18.7024853 17.706688,17.3530453 19.0709547,15.981312" id="Fill-3" fill="#0030A4"></path>
            <path d="M13.1786667,5.57392 L17.1989333,5.57392 C15.8666667,4.24058667 14.50464,2.87834667 13.1786667,1.55365333 L13.1786667,5.57392 Z M18.72,6.01648 C18.7296,8.46981333 18.7275733,10.9231467 18.7265067,13.37648 C18.7265067,13.4288533 18.7179733,13.48112 18.7114667,13.5503467 L17.93184,13.5503467 L17.93184,6.40592 L12.3627733,6.40592 L12.3627733,0.849653333 L0.8224,0.849653333 L0.8224,23.1098133 L11.5509333,23.1098133 L11.5509333,23.9077867 L0.0266666667,23.9077867 L0.0266666667,0.0303466667 L0.313706667,0.0303466667 C4.42890667,0.0303466667 8.54410667,0.03152 12.6593067,0.02608 C12.8522667,0.02608 12.9866667,0.0805866667 13.1242667,0.218186667 C14.9333333,2.04112 16.7498667,3.85765333 18.5589333,5.68165333 C18.64224,5.76592 18.72,5.90352 18.72,6.01648 L18.72,6.01648 Z" id="Fill-5" fill="#B0B0B0"></path>
            <path d="M14.125952,11.9770453 C14.554752,11.9770453 14.7584853,12.111552 14.7488853,12.3878187 C14.7392853,12.6554453 14.5398187,12.7792853 14.130112,12.7782187 C12.548352,12.7770453 10.9664853,12.7782187 9.38461867,12.7782187 C7.78461867,12.7782187 6.18461867,12.7792853 4.58461867,12.7770453 C4.487552,12.7770453 4.362752,12.7951787 4.30088533,12.7439787 C4.18141867,12.6448853 4.04168533,12.5135787 4.01501867,12.3759787 C3.97981867,12.1903787 4.11848533,12.042112 4.315712,11.996352 C4.408512,11.974912 4.50888533,11.9782187 4.605952,11.9782187 C7.77928533,11.9770453 10.9526187,11.9770453 14.125952,11.9770453" id="Fill-7" fill="#B0B0B0"></path>
            <path d="M14.4853333,8.836832 C14.5931733,8.93496533 14.7381333,9.08429867 14.7265067,9.19736533 C14.7137067,9.329632 14.5632,9.46509867 14.4427733,9.56109867 C14.3809067,9.611232 14.25504,9.58456533 14.1568,9.58456533 C12.5665067,9.585632 10.97504,9.585632 9.38464,9.585632 C7.76650667,9.585632 6.14837333,9.58456533 4.53130667,9.585632 C4.33813333,9.585632 4.15466667,9.57069867 4.05333333,9.37016533 C3.94890667,9.160032 4.02464,8.92536533 4.24224,8.840032 C4.33813333,8.80269867 4.44906667,8.78669867 4.55264,8.78669867 C7.77077333,8.782432 10.9877333,8.78125867 14.2048,8.782432 C14.3009067,8.782432 14.4256,8.78125867 14.4853333,8.836832" id="Fill-9" fill="#B0B0B0"></path>
            <path d="M11.5040747,15.4085013 C11.563808,15.4821013 11.541408,15.7146347 11.4677013,15.7850347 C11.3610347,15.8885013 11.176608,15.955808 11.0240747,15.9578347 C10.1280747,15.972768 9.231968,15.965408 8.335008,15.965408 L4.55474133,15.965408 C4.48423467,15.965408 4.41287467,15.9621013 4.344608,15.9483413 C4.12274133,15.9024747 3.992608,15.7594347 4.00850133,15.5365013 C4.024608,15.315808 4.16754133,15.1824747 4.39474133,15.1717013 C4.62514133,15.1621013 4.856608,15.1674347 5.087008,15.1674347 L7.77607467,15.1674347 C8.87570133,15.1674347 9.976608,15.1589013 11.077408,15.178208 C11.224608,15.1802347 11.4080747,15.290208 11.5040747,15.4085013" id="Fill-11" fill="#B0B0B0"></path>
            <path d="M10.0150187,18.3611093 C10.2422187,18.397376 10.3647787,18.5392427 10.3574187,18.7643093 C10.350912,18.976576 10.222912,19.105536 10.008512,19.133376 C9.92104533,19.1440427 9.83144533,19.142976 9.742912,19.142976 C8.890752,19.1440427 8.03848533,19.142976 7.18717867,19.142976 C6.28168533,19.142976 5.37608533,19.1460693 4.47144533,19.1418027 C4.17608533,19.139776 3.99997867,18.979776 4.00221867,18.742976 C4.005312,18.5168427 4.17384533,18.3675093 4.452352,18.3483093 C4.522752,18.342976 4.59421867,18.3460693 4.66568533,18.3460693 L7.780352,18.3460693 C8.43741867,18.3460693 9.093312,18.3460693 9.75048533,18.3472427 C9.83901867,18.3472427 9.928512,18.3483093 10.0150187,18.3611093" id="Fill-13" fill="#B0B0B0"></path>
            <path d="M8.4672,5.63037867 C8.67093333,5.67208533 8.77130667,5.81928533 8.768,6.01341867 C8.7648,6.19581867 8.66773333,6.33768533 8.47466667,6.37704533 C8.37130667,6.397312 8.26346667,6.40157867 8.15797333,6.40157867 C6.97610667,6.40264533 5.79413333,6.40264533 4.61226667,6.40264533 C4.57706667,6.40264533 4.54186667,6.40264533 4.50666667,6.40157867 C4.18464,6.39304533 4.00533333,6.25224533 4.0032,6.009152 C4,5.763712 4.18037333,5.61224533 4.49813333,5.60797867 C4.9952,5.60264533 5.49333333,5.606912 5.9904,5.606912 L6.41706667,5.606912 C7.00373333,5.606912 7.58944,5.605952 8.17610667,5.60797867 C8.27317333,5.60797867 8.37226667,5.61021867 8.4672,5.63037867" id="Fill-15" fill="#B0B0B0"></path>
        </g>
    </g>
</svg>