<?xml version="1.0" encoding="UTF-8"?>
<svg width="24px" height="24px" viewBox="0 0 24 24" version="1.1" xmlns="http://www.w3.org/2000/svg" xmlns:xlink="http://www.w3.org/1999/xlink">
    <!-- Generator: Sketch 53.2 (72643) - https://sketchapp.com -->
    <title>icon_profile copy 15</title>
    <desc>Created with Sketch.</desc>
    <g id="icon_profile-copy-15" stroke="none" stroke-width="1" fill="none" fill-rule="evenodd">
        <g id="Group-21" transform="translate(1.000000, 0.000000)">
            <path d="M13.1632,5.58689067 L17.2069333,5.58689067 C15.8736,4.24289067 14.5157333,2.875424 13.1632,1.512224 L13.1632,5.58689067 Z M17.9076267,13.5527573 L17.9076267,6.40609067 L15.1482667,6.40609067 L12.36096,6.40609067 L12.36096,3.62849067 L12.36096,0.846730667 L0.8272,0.846730667 L0.8272,23.105824 L14.68096,23.105824 C12.6576,21.531424 11.8224,19.5196907 12.6576,17.0812907 C13.4906667,14.6492907 15.3776,13.557024 17.9076267,13.5527573 L17.9076267,13.5527573 Z M21.9066667,18.776224 C21.9205333,16.350624 19.9653333,14.3815573 17.5312,14.3708907 C15.1322667,14.3612907 13.1557333,16.3335573 13.1504,18.7452907 C13.144,21.1357973 15.1056,23.1100907 17.5002667,23.1228907 C19.9162667,23.1367573 21.8917333,21.1868907 21.9066667,18.776224 L21.9066667,18.776224 Z M22.5328,17.4791573 C23.0170667,19.425824 22.504,21.137824 21.0405333,22.5319573 C20.0336,23.4919573 18.8112,23.9239573 17.4288,23.925024 C15.9632,23.9260907 14.4965333,23.925024 13.0298667,23.925024 L0.365333333,23.925024 L0.0272,23.925024 L0.0272,0.030624 L0.3376,0.030624 C4.4336,0.030624 8.53066667,0.0316906667 12.6276267,0.0263573333 C12.8293333,0.0263573333 12.9722667,0.0796906667 13.1162667,0.224757333 C14.9146667,2.033824 16.7184,3.83649067 18.5264,5.63595733 C18.6693333,5.777824 18.7322667,5.91755733 18.7312,6.122464 C18.7248,8.55755733 18.7301333,10.9927573 18.7226667,13.4268907 C18.7216,13.640224 18.7781333,13.7255573 18.9882667,13.793824 C20.824,14.3891307 22.0666667,15.5996907 22.5328,17.4791573 L22.5328,17.4791573 Z" id="Fill-1" fill="#B0B0B0"></path>
            <path d="M20.184032,17.0653333 C20.3674987,16.7997333 20.3493653,16.5768 20.1445653,16.4349333 C19.944032,16.2973333 19.7071253,16.3624 19.5322987,16.6108267 C19.281632,16.9660267 19.0341653,17.3245333 18.785632,17.6808 C18.3141653,18.35696 17.8426987,19.0333333 17.3626987,19.7224 C16.8378987,19.2957333 16.331232,18.8786667 15.8180587,18.4690667 C15.6122987,18.3036267 15.368992,18.3272 15.2282987,18.5053333 C15.083232,18.6888 15.116192,18.916 15.324192,19.0877333 C15.9204587,19.57936 16.5178987,20.0701333 17.1173653,20.5554667 C17.4117653,20.7944 17.6122987,20.7645333 17.828832,20.4541333 C18.6149653,19.3254933 19.400992,18.196 20.184032,17.0653333 M17.531232,14.3708267 C19.9652587,14.3816 21.9204587,16.3506667 21.906592,18.7762667 C21.8917653,21.1869333 19.916192,23.1368 17.5002987,23.1229333 C15.105632,23.1101333 13.144032,21.1357333 13.150432,18.7453333 C13.1556587,16.3336 15.1322987,14.3612267 17.531232,14.3708267" id="Fill-3" fill="#0030A4"></path>
            <path d="M20.1445547,16.434912 C20.3493547,16.5767787 20.367488,16.799712 20.1840213,17.065312 C19.4009813,18.1959787 18.6149547,19.3255787 17.8288213,20.454112 C17.612288,20.764512 17.4117547,20.7943787 17.1173547,20.5554453 C16.517888,20.070112 15.920448,19.5793387 15.324288,19.087712 C15.1161813,18.9159787 15.0832213,18.6887787 15.228288,18.505312 C15.3689813,18.3271787 15.612288,18.303712 15.818048,18.4690453 C16.3312213,18.8786453 16.837888,19.295712 17.362688,19.7223787 C17.842688,19.033312 18.3141547,18.3570453 18.7856213,17.6807787 C19.0341547,17.324512 19.2816213,16.9660053 19.532288,16.6108053 C19.7071147,16.3623787 19.9440213,16.297312 20.1445547,16.434912" id="Fill-5" fill="#FFFFFF"></path>
            <path d="M14.7343467,12.3698133 C14.7397867,12.65152 14.54032,12.7783467 14.1114133,12.7783467 C12.5295467,12.77728 10.94768,12.77728 9.36592,12.7783467 L4.56592,12.7783467 C4.34714667,12.7783467 4.13381333,12.7687467 4.03141333,12.5234133 C3.94938667,12.3282133 4.02085333,12.11168 4.21701333,12.03488 C4.32901333,11.9911467 4.45808,11.9794133 4.57978667,11.9794133 C7.76165333,11.97632 10.94352,11.97728 14.12528,11.97728 C14.5445867,11.97728 14.7301867,12.0978133 14.7343467,12.3698133" id="Fill-11" fill="#B0B0B0"></path>
            <path d="M14.7343467,9.18689067 C14.7343467,9.44395733 14.5551467,9.58475733 14.2127467,9.58475733 C12.59568,9.585824 10.9775467,9.58475733 9.36048,9.58475733 C7.76901333,9.58475733 6.17861333,9.585824 4.58714667,9.58369067 C4.47418667,9.58369067 4.33328,9.59969067 4.25221333,9.541024 C4.14352,9.46209067 4.01754667,9.32129067 4.01328,9.20289067 C4.01018667,9.08449067 4.12528,8.93835733 4.22661333,8.84673067 C4.29381333,8.78689067 4.42832,8.78475733 4.53178667,8.78475733 C7.75738667,8.78049067 10.9840533,8.78049067 14.2095467,8.78049067 C14.5338133,8.78049067 14.73328,8.936224 14.7343467,9.18689067" id="Fill-13" fill="#B0B0B0"></path>
            <path d="M11.5343467,15.5474133 C11.5386133,15.66912 11.40528,15.8183467 11.2965867,15.9133867 C11.2293867,15.97088 11.0938133,15.9634133 10.9893867,15.9634133 C8.83792,15.9655467 6.68752,15.9655467 4.53605333,15.9655467 C4.48272,15.9655467 4.42832,15.9687467 4.37701333,15.9591467 C4.15194667,15.91648 3.99941333,15.7959467 3.99845333,15.5506133 C3.99738667,15.32672 4.16368,15.1730133 4.42405333,15.1698133 C4.95738667,15.1624533 5.49072,15.16768 6.02405333,15.16768 C6.61072,15.16672 7.19738667,15.16768 7.78405333,15.16768 C8.85072,15.16768 9.91738667,15.16672 10.9840533,15.16768 C11.0810133,15.1687467 11.20592,15.1474133 11.2688533,15.1986133 C11.38288,15.2903467 11.5290133,15.4248533 11.5343467,15.5474133" id="Fill-15" fill="#B0B0B0"></path>
            <path d="M9.88528,18.3474133 C10.18608,18.3634133 10.3525867,18.5074133 10.3525867,18.74848 C10.3514133,18.9896533 10.1840533,19.1400533 9.88218667,19.1410133 C8.97754667,19.1463467 8.07194667,19.1431467 7.16752,19.1431467 C6.30661333,19.1431467 5.44592,19.1442133 4.58512,19.14208 C4.47941333,19.14208 4.34512,19.1624533 4.27461333,19.10912 C4.16048,19.0205867 4.01978667,18.8807467 4.01552,18.7581867 C4.01221333,18.6375467 4.14234667,18.4850133 4.25434667,18.3954133 C4.33018667,18.3346133 4.47418667,18.34848 4.58832,18.3474133 C6.30885333,18.34528 8.03034667,18.3463467 9.75194667,18.3463467 C9.79568,18.3463467 9.84048,18.3442133 9.88528,18.3474133" id="Fill-17" fill="#B0B0B0"></path>
            <path d="M8.31841067,5.60824533 C8.60523733,5.62840533 8.76097067,5.769312 8.758944,6.00717867 C8.75787733,6.242912 8.602144,6.39437867 8.314144,6.39864533 C7.65707733,6.40717867 7.00001067,6.40077867 6.34283733,6.40077867 L6.34283733,6.40173867 C5.73067733,6.40173867 5.117344,6.41357867 4.50507733,6.393312 C4.355744,6.38797867 4.166944,6.31544533 4.06987733,6.207712 C3.89601067,6.01464533 4.01761067,5.71064533 4.27361067,5.63704533 C4.37387733,5.60824533 4.483744,5.60824533 4.589344,5.60824533 C5.779744,5.60600533 6.96907733,5.60717867 8.15947733,5.60717867 C8.21281067,5.60717867 8.266144,5.60504533 8.31841067,5.60824533" id="Fill-19" fill="#B0B0B0"></path>
        </g>
    </g>
</svg>