<?xml version="1.0" encoding="UTF-8"?>
<svg width="24px" height="24px" viewBox="0 0 24 24" version="1.1" xmlns="http://www.w3.org/2000/svg" xmlns:xlink="http://www.w3.org/1999/xlink">
    <!-- Generator: Sketch 53.2 (72643) - https://sketchapp.com -->
    <title>icon_profile copy 14</title>
    <desc>Created with Sketch.</desc>
    <g id="icon_profile-copy-14" stroke="none" stroke-width="1" fill="none" fill-rule="evenodd">
        <g id="Group-17" transform="translate(1.000000, 0.000000)">
            <path d="M13.163616,5.58097067 L17.202976,5.58097067 C15.8750827,4.242304 14.518176,2.87483733 13.163616,1.51057067 L13.163616,5.58097067 Z M17.9080427,13.5521707 L17.9080427,6.40657067 L15.148576,6.40657067 L12.361376,6.40657067 L12.361376,3.62897067 L12.361376,0.847104 L0.827616,0.847104 L0.827616,23.106304 L14.6824427,23.106304 C12.658016,21.531904 11.822816,19.5201707 12.658016,17.0817707 C13.4921493,14.648704 15.3790827,13.557504 17.9080427,13.5521707 L17.9080427,13.5521707 Z M21.9080427,18.837504 C21.9496427,16.414144 20.0446827,14.4321707 17.593376,14.3724373 C15.1966827,14.3148373 13.205216,16.2593707 13.1518827,18.7105707 C13.138016,21.0401707 14.9566827,22.9857707 17.2798827,23.119104 C19.7950827,23.2641707 21.867616,21.2385707 21.9080427,18.837504 L21.9080427,18.837504 Z M22.5342827,17.4817707 C23.0163093,19.4284373 22.5043093,21.141504 21.0398827,22.5345707 C20.0243093,23.499904 18.792416,23.9265707 17.400416,23.925504 C15.2766827,23.9233707 13.1528427,23.925504 11.0280427,23.925504 L0.363616,23.925504 L0.0265493333,23.925506 L0.0265493333,0.031104 L0.340042667,0.031104 C4.43710933,0.031104 8.53428267,0.0321706667 12.6313493,0.0268373333 C12.8328427,0.0268373333 12.9747093,0.082304 13.118816,0.227477333 C14.923616,2.04177067 16.7337493,3.85083733 18.5480427,5.656704 C18.678176,5.78683733 18.7326827,5.91483733 18.7315093,6.09841067 C18.726176,8.54203733 18.7315093,10.9857707 18.722976,13.4305707 C18.7219093,13.6460373 18.7848427,13.727104 18.9918827,13.794304 C20.8265493,14.391744 22.0691093,15.602304 22.5342827,17.4817707 L22.5342827,17.4817707 Z" id="Fill-1" fill="#B0B0B0"></path>
            <path d="M20.313408,18.7660693 C20.329408,18.5442027 20.1651413,18.3660693 19.916608,18.357536 C19.5176747,18.3426027 19.1176747,18.3510293 18.7176747,18.3500693 C18.463808,18.3490027 18.2089813,18.3500693 17.926208,18.3500693 L17.926208,18.0267627 C17.9251413,17.4946027 17.928448,16.962336 17.9241813,16.4290027 C17.9219413,16.1324693 17.7715413,15.9692693 17.523008,15.9724693 C17.2776747,15.9746027 17.1336747,16.1410027 17.128448,16.4386027 C17.1241813,16.7138027 17.1272747,16.9890027 17.1272747,17.2642027 L17.1272747,18.3490027 L16.808448,18.3490027 C16.284608,18.3500693 15.7608747,18.3458027 15.2371413,18.3510293 C14.9193813,18.355296 14.7443413,18.5036693 14.7465813,18.7500693 C14.7475413,19.000736 14.9171413,19.147936 15.2351147,19.1510293 C15.7672747,19.1564693 16.300608,19.1522027 16.8328747,19.1532693 C16.9256747,19.154336 17.0184747,19.1638293 17.1272747,19.170336 L17.1272747,19.490336 C17.1272747,20.0140693 17.1272747,20.537696 17.128448,21.061536 C17.128448,21.285536 17.1999147,21.4690027 17.443008,21.5212693 C17.7203413,21.5819627 17.9219413,21.395296 17.9241813,21.074336 C17.928448,20.447136 17.9251413,19.8188693 17.9251413,19.1532693 L18.2632747,19.1532693 C18.8136747,19.1510293 19.3641813,19.155296 19.9145813,19.1458027 C20.1491413,19.141536 20.2963413,19.007136 20.313408,18.7660693 M17.593408,14.3724693 C20.044608,14.4322027 21.9496747,16.4140693 21.9080747,18.837536 C21.8675413,21.2386027 19.7951147,23.2642027 17.2799147,23.119136 C14.956608,22.9858027 13.1379413,21.040096 13.151808,18.710496 C13.2051413,16.2594027 15.196608,14.3148693 17.593408,14.3724693" id="Fill-3" fill="#0030A4"></path>
            <path d="M19.91664,18.357536 C20.1651733,18.3660693 20.32944,18.5442027 20.31344,18.7660693 C20.2963733,19.007136 20.1491733,19.141536 19.9145067,19.1458027 C19.3641067,19.155296 18.8137067,19.1510293 18.2633067,19.1532693 L17.9251733,19.1532693 C17.9251733,19.8188693 17.9283733,20.447136 17.9241067,21.074336 C17.9219733,21.395296 17.7203733,21.5819627 17.44304,21.5212693 C17.19984,21.4690027 17.1283733,21.285536 17.1283733,21.061536 C17.1273067,20.537696 17.1273067,20.0140693 17.1273067,19.490336 L17.1273067,19.170336 C17.0185067,19.163936 16.9257067,19.154336 16.8329067,19.1532693 C16.30064,19.1522027 15.7673067,19.1564693 15.23504,19.1510293 C14.9171733,19.147936 14.7475733,19.000736 14.7465067,18.7500693 C14.7443733,18.5036693 14.9193067,18.355296 15.2371733,18.3510293 C15.7609067,18.3458027 16.28464,18.3500693 16.8083733,18.3490027 L17.1273067,18.3490027 L17.1273067,17.2642027 C17.1273067,16.9890027 17.1241067,16.7138027 17.1283733,16.4386027 C17.1337067,16.1410027 17.2777067,15.9746027 17.52304,15.9724693 C17.7715733,15.9692693 17.9219733,16.1324693 17.9241067,16.4290027 C17.9283733,16.962336 17.9251733,17.4946027 17.92624,18.0267627 L17.92624,18.3500693 C18.2089067,18.3500693 18.46384,18.3490027 18.7177067,18.3500693 C19.1177067,18.3510293 19.5177067,18.3426027 19.91664,18.357536" id="Fill-5" fill="#FFFFFF"></path>
            <path d="M14.735808,12.3693013 C14.741248,12.6509013 14.540608,12.7789013 14.111808,12.7789013 C12.5299413,12.7766613 10.9480747,12.777728 9.366208,12.777728 C7.766208,12.7789013 6.16727467,12.777728 4.56727467,12.7789013 C4.34754133,12.7789013 4.134208,12.768128 4.031808,12.5238613 C3.94967467,12.3275947 4.021248,12.1122347 4.21847467,12.0342613 C4.329408,11.9917013 4.45954133,11.979968 4.581248,11.979968 C7.763008,11.9766613 10.943808,11.977728 14.1256747,11.977728 C14.5448747,11.977728 14.7304747,12.0971947 14.735808,12.3693013" id="Fill-7" fill="#B0B0B0"></path>
            <path d="M14.4723733,8.82794667 C14.66128,8.88341333 14.7401067,9.02848 14.7305067,9.21514667 C14.71984,9.40501333 14.6089067,9.52864 14.4243733,9.57034667 C14.3305067,9.59168 14.23024,9.58528 14.1331733,9.58528 L9.35984,9.58528 C7.76944,9.58528 6.17797333,9.58624 4.58757333,9.58421333 C4.47344,9.58421333 4.33264,9.59904 4.25264,9.54048 C4.14277333,9.46144 4.01797333,9.32074667 4.01477333,9.20234667 C4.01050667,9.08384 4.12464,8.93461333 4.22917333,8.84810667 C4.30490667,8.78528 4.44794667,8.78741333 4.55984,8.78741333 C7.76837333,8.78314667 10.9769067,8.78197333 14.1855467,8.78314667 C14.28144,8.78421333 14.3795733,8.80128 14.4723733,8.82794667" id="Fill-9" fill="#B0B0B0"></path>
            <path d="M11.5347627,15.5479467 C11.540096,15.66848 11.4067627,15.8177067 11.2970027,15.9138133 C11.2307627,15.9714133 11.095296,15.96288 10.9907627,15.96384 C8.839296,15.96608 6.687936,15.96608 4.53742933,15.96608 C4.484096,15.96608 4.429696,15.96928 4.37742933,15.9595733 C4.15236267,15.9170133 4.000896,15.79648 3.99982933,15.55104 C3.997696,15.3271467 4.16516267,15.17344 4.425536,15.1703467 C4.95886933,15.16288 5.49220267,15.1671467 6.025536,15.1671467 L7.785536,15.1671467 C8.85220267,15.1671467 9.917696,15.1671467 10.9843627,15.1681067 C11.0814293,15.1681067 11.207296,15.1479467 11.270336,15.19808 C11.3843627,15.2898133 11.5294293,15.42528 11.5347627,15.5479467" id="Fill-11" fill="#B0B0B0"></path>
            <path d="M9.888928,18.3468053 C10.1886613,18.3650453 10.3550613,18.5100053 10.352928,18.751072 C10.3507947,18.9922453 10.1822613,19.1404053 9.88039467,19.141472 C8.97575467,19.1457387 8.07026133,19.1426453 7.165728,19.143712 C6.295328,19.143712 5.42599467,19.1457387 4.55666133,19.1404053 C4.436128,19.1404053 4.286688,19.1394453 4.20146133,19.073312 C4.10439467,18.996512 4.00722133,18.8450453 4.01266133,18.730912 C4.01799467,18.615712 4.12786133,18.4748053 4.231328,18.4044053 C4.32295467,18.343712 4.469088,18.3490453 4.59186133,18.3479787 C6.31239467,18.3457387 8.033888,18.3457387 9.75559467,18.3468053 C9.799328,18.3468053 9.844128,18.344672 9.888928,18.3468053" id="Fill-13" fill="#B0B0B0"></path>
            <path d="M8.76039467,6.00555733 C8.759328,6.24235733 8.60359467,6.394784 8.31666133,6.39809067 C7.66919467,6.406624 7.02055467,6.40129067 6.372128,6.40129067 L6.372128,6.40235733 C5.75026133,6.40235733 5.12839467,6.41195733 4.50759467,6.394784 C4.362528,6.39051733 4.183328,6.33089067 4.08519467,6.23169067 C3.89426133,6.038624 4.00839467,5.71649067 4.272928,5.638624 C4.372128,5.60865067 4.48295467,5.60865067 4.58866133,5.60769067 C5.77906133,5.606624 6.96839467,5.606624 8.15879467,5.606624 C8.21106133,5.606624 8.26546133,5.604384 8.317728,5.60865067 C8.60466133,5.62795733 8.76039467,5.76769067 8.76039467,6.00555733" id="Fill-15" fill="#B0B0B0"></path>
        </g>
    </g>
</svg>