<?xml version="1.0" encoding="UTF-8"?>
<svg width="24px" height="24px" viewBox="0 0 24 24" version="1.1" xmlns="http://www.w3.org/2000/svg" xmlns:xlink="http://www.w3.org/1999/xlink">
    <!-- Generator: Sketch 53.2 (72643) - https://sketchapp.com -->
    <title>icon_profile copy 28</title>
    <desc>Created with Sketch.</desc>
    <g id="icon_profile-copy-28" stroke="none" stroke-width="1" fill="none" fill-rule="evenodd">
        <g id="Group-7" transform="translate(0.000000, 2.000000)">
            <path d="M3.30595862,19.2669517 L3.30595862,4.50364138 C2.7249931,4.50364138 2.16057931,4.50364138 1.5969931,4.50446897 C1.08057931,4.50446897 0.989544828,4.59467586 0.989544828,5.1086069 C0.989544828,9.63302069 0.989544828,14.1574345 0.990372414,18.6818483 C0.990372414,18.7596414 0.98457931,18.8382621 0.995337931,18.9160552 C1.02182069,19.1080552 1.12692414,19.2586759 1.32388966,19.2619862 C1.98016552,19.2760552 2.63809655,19.2669517 3.30595862,19.2669517 L3.30595862,19.2669517 Z M2.94264828,3.70750345 L5.24913103,3.70750345 L5.24913103,3.33757241 L2.94264828,3.33757241 L2.94264828,3.70750345 Z M15.3796138,3.70584828 L15.3796138,3.41371034 L15.3796138,1.72046897 C15.3796138,1.11881379 15.2596138,0.997158621 14.6678897,0.997158621 L9.09244138,0.997158621 C9.01382069,0.997158621 8.93602759,0.994675862 8.8574069,1.00212414 C8.55368276,1.03026207 8.3889931,1.19991724 8.38237241,1.51191724 C8.37492414,1.86695172 8.38071724,2.22364138 8.38071724,2.58033103 L8.38071724,3.70584828 L15.3796138,3.70584828 Z M4.12195862,19.2611586 L19.6383724,19.2611586 L19.6383724,4.51853793 L4.12195862,4.51853793 L4.12195862,19.2611586 Z M18.5112,3.70750345 L20.8176828,3.70750345 L20.8176828,3.33757241 L18.5112,3.33757241 L18.5112,3.70750345 Z M22.7699586,5.10943448 C22.7699586,5.03081379 22.7749241,4.95136552 22.7658207,4.8744 C22.7401655,4.6584 22.6201655,4.51357241 22.3975448,4.51108966 C21.7561655,4.50115862 21.1139586,4.50695172 20.4502345,4.50695172 L20.4502345,19.284331 L22.1500966,19.284331 C22.6739586,19.2835034 22.7699586,19.1858483 22.7699586,18.6570207 L22.7699586,5.10943448 Z M23.5512,5.00184828 C23.5536828,9.59577931 23.5536828,14.1880552 23.5512,18.7811586 C23.5512,19.5756414 23.0885793,20.0432276 22.2965793,20.0688828 C22.2444414,20.0697103 22.1923034,20.0688828 22.1401655,20.0688828 L1.61437241,20.0688828 C1.29988966,20.0688828 0.994510345,20.0465379 0.721406897,19.8553655 C0.396993103,19.6277793 0.238096552,19.3190897 0.210786207,18.9342621 C0.206648276,18.8730207 0.207475862,18.8126069 0.207475862,18.7513655 C0.206648276,14.176469 0.206648276,9.59991724 0.207475862,5.02502069 C0.207475862,4.18667586 0.675062069,3.72571034 1.52002759,3.72157241 C1.65988966,3.72157241 1.79809655,3.7224 1.93713103,3.72157241 C1.99588966,3.71991724 2.05464828,3.71246897 2.13988966,3.70750345 L2.13988966,2.57371034 L6.03782069,2.57371034 L6.03782069,3.70336552 L7.59782069,3.70336552 L7.59782069,3.43026207 C7.59782069,2.8046069 7.59368276,2.17977931 7.59864828,1.55495172 C7.60361379,0.767917241 8.10347586,0.225848276 8.88554483,0.219227586 C10.8825103,0.202675862 12.8803034,0.202675862 14.877269,0.219227586 C15.6601655,0.225848276 16.1558897,0.7704 16.1608552,1.55908966 C16.1666483,2.26833103 16.1625103,2.9784 16.1625103,3.70502069 L17.705131,3.70502069 L17.705131,2.57536552 L21.6138207,2.57536552 L21.6138207,3.72157241 C21.8438897,3.72157241 22.0565793,3.71991724 22.269269,3.7224 C23.0761655,3.72902069 23.5512,4.19826207 23.5512,5.00184828 L23.5512,5.00184828 Z" id="Fill-1" fill="#4A4A4A"></path>
            <path d="M22.7654897,4.87473103 C22.7754207,4.95169655 22.7696276,5.03031724 22.7696276,5.10893793 L22.7696276,18.6565241 C22.7696276,19.1861793 22.6744552,19.2830069 22.1497655,19.2838345 L20.4499034,19.2838345 L20.4499034,4.50728276 C21.1136276,4.50728276 21.7558345,4.50148966 22.3980414,4.51142069 C22.6198345,4.51307586 22.7406621,4.65790345 22.7654897,4.87473103" id="Fill-3" fill="#0030A4"></path>
            <path d="M3.30595862,4.5038069 L3.30595862,19.2671172 C2.63809655,19.2671172 1.98016552,19.2762207 1.32388966,19.2621517 C1.12692414,19.2588414 1.02182069,19.1073931 0.995337931,18.9162207 C0.98457931,18.8384276 0.990372414,18.7598069 0.990372414,18.6820138 C0.989544828,14.1576 0.989544828,9.63318621 0.989544828,5.10794483 C0.989544828,4.59401379 1.08057931,4.50463448 1.5969931,4.50463448 C2.16057931,4.5038069 2.7249931,4.5038069 3.30595862,4.5038069" id="Fill-5" fill="#0030A4"></path>
        </g>
    </g>
</svg>