<?xml version="1.0" encoding="UTF-8"?>
<svg width="24px" height="24px" viewBox="0 0 24 24" version="1.1" xmlns="http://www.w3.org/2000/svg" xmlns:xlink="http://www.w3.org/1999/xlink">
    <!-- Generator: Sketch 53.2 (72643) - https://sketchapp.com -->
    <title>icon_profile copy 31</title>
    <desc>Created with Sketch.</desc>
    <defs>
        <polygon id="path-1" points="0 19.59968 23.6 19.59968 23.6 -0.00032 0 -0.00032"></polygon>
    </defs>
    <g id="icon_profile-copy-31" stroke="none" stroke-width="1" fill="none" fill-rule="evenodd">
        <g id="Group-16" transform="translate(0.000000, 2.000000)">
            <path d="M8.41816,15.09504 C8.41816,14.83904 8.23496,14.71104 7.85896,14.71104 L7.82696,14.71104 L4.69896,14.71104 C4.62696,14.71104 4.55416,14.71104 4.49096,14.71904 C4.26696,14.75104 4.12216,14.87104 4.12216,15.11104 C4.12216,15.34304 4.27416,15.46304 4.49896,15.49504 C4.57016,15.50304 4.63496,15.49504 4.70616,15.49504 C5.21816,15.50304 5.72216,15.50304 6.23496,15.50304 C6.77816,15.50304 7.32216,15.50304 7.86696,15.49504 C8.23496,15.49504 8.42696,15.35904 8.41816,15.09504 L8.41816,15.09504 Z M3.34616,16.27104 L11.15416,16.27104 L11.15416,11.99104 L3.34616,11.99104 L3.34616,16.27104 Z M7.25016,13.12704 C7.24216,13.33504 7.43496,13.53504 7.63496,13.53504 C7.82696,13.53504 8.01816,13.35904 8.02696,13.15904 C8.03496,12.95104 7.85896,12.76704 7.64216,12.75904 C7.43496,12.75904 7.25896,12.92704 7.25016,13.12704 L7.25016,13.12704 Z M9.22696,12.75904 C8.97816,12.76704 8.81016,12.93504 8.81816,13.14304 C8.83496,13.37504 8.97016,13.50304 9.19496,13.53504 C9.32216,13.54304 9.45896,13.53504 9.58616,13.53504 C9.72216,13.53504 9.86696,13.55104 10.00216,13.53504 C10.21816,13.50304 10.37016,13.38304 10.37816,13.14304 C10.37816,12.91904 10.22696,12.76704 9.97816,12.75904 C9.72216,12.75104 9.47416,12.75104 9.22696,12.75904 L9.22696,12.75904 Z M6.45896,13.14304 C6.45896,12.91904 6.29896,12.76704 6.02696,12.75904 C5.77816,12.75104 5.53096,12.75104 5.28216,12.75104 C5.04216,12.75104 4.79496,12.75104 4.55416,12.75904 C4.28216,12.76704 4.12216,12.90304 4.12216,13.13504 C4.11416,13.35104 4.27416,13.52704 4.53096,13.53504 C5.03496,13.54304 5.53096,13.54304 6.03496,13.53504 C6.29096,13.52704 6.45896,13.35904 6.45896,13.14304 L6.45896,13.14304 Z M9.99496,15.09504 C9.98616,14.88704 9.82696,14.73504 9.60216,14.72704 C9.37016,14.72704 9.21016,14.88704 9.21016,15.11104 C9.21816,15.32704 9.37816,15.47824 9.59496,15.48704 C9.81016,15.48704 9.99496,15.30304 9.99496,15.09504 L9.99496,15.09504 Z" id="Fill-1" fill="#0030A4"></path>
            <path d="M9.60256,14.72704 C9.82656,14.73504 9.98576,14.88704 9.99456,15.09504 C9.99456,15.30304 9.81056,15.48704 9.59456,15.48704 C9.37856,15.47824 9.21856,15.32704 9.21056,15.11024 C9.21056,14.88704 9.37056,14.72704 9.60256,14.72704" id="Fill-3" fill="#FFFFFF"></path>
            <path d="M9.58616,13.53488 C9.45896,13.53488 9.32216,13.54288 9.19496,13.53488 C8.97016,13.50288 8.83496,13.37488 8.81816,13.14288 C8.81016,12.93488 8.97816,12.76688 9.22696,12.75888 C9.47416,12.75168 9.72216,12.75168 9.97816,12.75888 C10.22696,12.76688 10.37816,12.91888 10.37816,13.14288 C10.37016,13.38368 10.21816,13.50288 10.00296,13.53488 C9.86696,13.55168 9.72216,13.53488 9.58616,13.53488" id="Fill-5" fill="#FFFFFF"></path>
            <path d="M7.63456,13.53488 C7.43456,13.53488 7.24256,13.33488 7.25056,13.12688 C7.25856,12.92688 7.43456,12.75888 7.64256,12.75888 C7.85856,12.76688 8.03456,12.95168 8.02656,13.15888 C8.01776,13.35888 7.82656,13.53488 7.63456,13.53488" id="Fill-7" fill="#FFFFFF"></path>
            <path d="M4.70648,15.49504 C4.63448,15.49504 4.57048,15.50304 4.49848,15.49504 C4.27448,15.46304 4.12248,15.34304 4.12248,15.11104 C4.12248,14.87104 4.26648,14.75104 4.49048,14.71904 C4.55448,14.71104 4.62648,14.71104 4.69848,14.71104 L7.82648,14.71104 L7.85848,14.71104 C8.23448,14.71104 8.41848,14.83904 8.41848,15.09504 C8.42648,15.35904 8.23448,15.49504 7.86648,15.49504 C7.32248,15.50304 6.77848,15.50304 6.23448,15.50304 C5.72248,15.50304 5.21848,15.50304 4.70648,15.49504" id="Fill-9" fill="#FFFFFF"></path>
            <path d="M6.02672,12.75912 C6.29872,12.76712 6.45872,12.91912 6.45872,13.14232 C6.45872,13.35912 6.29072,13.52712 6.03472,13.53512 C5.53072,13.54232 5.03472,13.54232 4.53072,13.53512 C4.27472,13.52712 4.11392,13.35112 4.12192,13.13512 C4.12192,12.90312 4.28192,12.76712 4.55392,12.75912 C4.79472,12.75112 5.04272,12.75112 5.28192,12.75112 C5.53072,12.75112 5.77792,12.75112 6.02672,12.75912" id="Fill-11" fill="#FFFFFF"></path>
            <mask id="mask-2" fill="white">
                <use xlink:href="#path-1"></use>
            </mask>
            <g id="Clip-14"></g>
            <path d="M2.5464,17.04688 L11.9464,17.04688 L11.9464,11.19168 L2.5464,11.19168 L2.5464,17.04688 Z M3.3464,16.27088 L11.1544,16.27088 L11.1544,11.99088 L3.3464,11.99088 L3.3464,16.27088 Z" id="Fill-13" fill="#4A4A4A" mask="url(#mask-2)"></path>
            <path d="M23.2588,4.89504 C23.346,4.89504 23.418,4.98304 23.3948,5.07104 C22.1708,9.82304 20.9628,14.53504 19.7388,19.29504 C19.722,19.35104 19.6668,19.39904 19.6028,19.39904 L0.346,19.39904 C0.2668,19.39904 0.2028,19.33504 0.2028,19.25504 L0.2028,0.91904 C0.2028,0.52704 0.514,0.20704 0.914,0.20704 C2.4748,0.20704 6.242,0.20704 8.354,0.19904 C8.5708,0.19904 8.754,0.33504 8.8348,0.54304 C9.1308,1.36704 9.45,2.18304 9.746,3.01504 C9.818,3.20704 9.9948,3.33504 10.1948,3.33504 C12.6908,3.32704 17.186,3.32704 19.0028,3.32704 C19.4348,3.32704 19.786,3.68704 19.786,4.11904 L19.786,4.75104 C19.786,4.83104 19.85,4.89504 19.9308,4.89504 L23.2588,4.89504 Z M22.378,5.89504 C22.4028,5.79904 22.3308,5.71104 22.2348,5.71104 L19.9628,5.71104 C19.882,5.71104 19.818,5.77504 19.818,5.85504 L19.818,14.55104 C20.01,14.57504 19.946,14.56704 20.1388,14.59104 L22.378,5.89504 Z M1.114,18.61504 L18.8588,18.61504 C18.9388,18.61504 19.0028,18.55104 19.0028,18.47104 L19.0028,4.12704 L18.6588,4.12704 C15.6748,4.12704 12.6908,4.12704 9.7068,4.13504 C9.4668,4.13504 9.2588,3.98304 9.178,3.75904 C8.8748,2.91904 8.554,2.07824 8.25,1.23904 C8.186,1.04624 8.1068,0.97504 7.8908,0.97504 C5.882,0.99104 1.914,0.98304 1.114,0.98304 C1.0348,0.98304 0.9708,1.04624 0.9708,1.12704 L0.9708,18.47104 C0.9708,18.55104 1.0348,18.61504 1.114,18.61504 L1.114,18.61504 Z" id="Fill-15" fill="#4A4A4A" mask="url(#mask-2)"></path>
        </g>
    </g>
</svg>