<?xml version="1.0" encoding="UTF-8"?>
<svg width="24px" height="24px" viewBox="0 0 24 24" version="1.1" xmlns="http://www.w3.org/2000/svg" xmlns:xlink="http://www.w3.org/1999/xlink">
    <!-- Generator: Sketch 53.2 (72643) - https://sketchapp.com -->
    <title>icon_profile copy 12</title>
    <desc>Created with Sketch.</desc>
    <g id="icon_profile-copy-12" stroke="none" stroke-width="1" fill="none" fill-rule="evenodd">
        <path d="M8.26660982,-1.50990331e-14 L18.94029,-1.50990331e-14 C20.0448595,-1.53019393e-14 20.94029,0.8954305 20.94029,2 L20.94029,22 C20.94029,23.1045695 20.0448595,24 18.94029,24 L4.94028996,24 C3.83572046,24 2.94028996,23.1045695 2.94028996,22 L2.94028996,7.00190128 L2.94028996,6.46699603 L2.99431365,6.51074355 L8.26660982,-1.44884105e-14 Z M5,10 L5,13 L8,13 L8,10 L5,10 Z M5,16 L5,19 L8,19 L8,16 L5,16 Z M10,10 L10,11 L18,11 L18,10 L10,10 Z M10,12 L10,13 L15,13 L15,12 L10,12 Z M10,16 L10,17 L18,17 L18,16 L10,16 Z M10,18 L10,19 L15,19 L15,18 L10,18 Z M8.07971096,1.70532915 L4.39769154,6.28459818 L8.07971096,6.28459818 L8.07971096,1.70532915 Z" id="Combined-Shape" fill="#4A4A4A"></path>
    </g>
</svg>