<?xml version="1.0" encoding="UTF-8"?>
<svg width="24px" height="24px" viewBox="0 0 24 24" version="1.1" xmlns="http://www.w3.org/2000/svg" xmlns:xlink="http://www.w3.org/1999/xlink">
    <!-- Generator: Sketch 53.2 (72643) - https://sketchapp.com -->
    <title>icon_profile copy 35</title>
    <desc>Created with Sketch.</desc>
    <g id="icon_profile-copy-35" stroke="none" stroke-width="1" fill="none" fill-rule="evenodd">
        <g id="Group-13" transform="translate(4.000000, 0.000000)">
            <path d="M8.71943182,12.8967045 C9.21829545,12.9751136 9.65011364,12.83875 10.0148864,12.4876136 C10.1626136,12.3398864 10.2989773,12.3285227 10.4569318,12.4876136 C10.8319318,12.8626136 11.2989773,12.9648864 11.8103409,12.9194318 C11.8773864,12.9080682 12.01375,12.9989773 12.02625,13.0660227 C12.1285227,13.6126136 12.4239773,14.0092045 12.9228409,14.2830682 C12.9682955,14.3046591 13.01375,14.4535227 12.9921591,14.5103409 C12.7648864,15.0444318 12.7648864,15.5557955 12.9921591,16.0898864 C13.01375,16.1455682 12.9682955,16.2819318 12.9114773,16.3171591 C12.4239773,16.5773864 12.1398864,16.9876136 12.02625,17.5330682 C11.9682955,17.8171591 11.7296591,17.6114773 11.5932955,17.6807955 C11.1398864,17.6114773 10.7864773,17.8171591 10.4694318,18.08875 C10.3092045,18.2364773 10.1853409,18.2603409 10.0251136,18.10125 C9.65011364,17.7489773 9.20806818,17.6114773 8.70693182,17.6807955 C8.53761364,17.7023864 8.45806818,17.6353409 8.42284091,17.4751136 C8.34443182,16.97625 8.08193182,16.60125 7.61602273,16.3626136 C7.48079545,16.2819318 7.42284091,16.1910227 7.49215909,16.0217045 C7.71943182,15.5444318 7.71943182,15.0546591 7.50352273,14.5773864 C7.42284091,14.4194318 7.45806818,14.3171591 7.61602273,14.2376136 C8.07170455,13.9989773 8.34443182,13.6342045 8.42284091,13.1228409 C8.45806818,12.9535227 8.53761364,12.8728409 8.71943182,12.8967045" id="Fill-1" fill="#0030A4"></path>
            <path d="M13.2760227,10.1235227 C13.04875,10.1235227 12.8214773,9.89625 12.8214773,9.65761364 C12.8214773,9.41897727 13.0373864,9.20306818 13.2760227,9.20306818 C13.5260227,9.20306818 13.7419318,9.41897727 13.7419318,9.65761364 C13.7305682,9.90875 13.5146591,10.1235227 13.2760227,10.1235227" id="Fill-3" fill="#4A4A4A"></path>
            <path d="M13.1505682,6.83977273 C13.35625,6.83977273 13.5823864,6.8625 13.6619318,7.08977273 C13.7073864,7.22613636 13.73125,7.46477273 13.6505682,7.54431818 C13.5255682,7.66818182 13.3107955,7.76022727 13.1278409,7.77045455 C12.5710227,7.80568182 12.0028409,7.78295455 11.4460227,7.78295455 L3.16193182,7.78295455 C2.93579545,7.78295455 2.70852273,7.74886364 2.62784091,7.51022727 C2.58238636,7.37386364 2.58238636,7.14659091 2.67329545,7.05454545 C2.78693182,6.93068182 3.00284091,6.85113636 3.18465909,6.85113636 C4.84375,6.83977273 6.51420455,6.83977273 8.17329545,6.83977273 L13.1505682,6.83977273 Z" id="Fill-5" fill="#4A4A4A"></path>
            <path d="M11.2873864,10.1235227 L7.19647727,10.1235227 L3.15102273,10.1235227 C2.93511364,10.1235227 2.74079545,10.0894318 2.62829545,9.88488636 C2.48056818,9.61215909 2.60556818,9.30534091 2.90102273,9.22579545 C3.00329545,9.19170455 3.12829545,9.19170455 3.24193182,9.19170455 L11.2078409,9.19170455 L11.2873864,9.19170455 C11.67375,9.20306818 11.8782955,9.37352273 11.8782955,9.66897727 C11.8669318,9.96443182 11.6623864,10.1235227 11.2873864,10.1235227" id="Fill-7" fill="#4A4A4A"></path>
            <path d="M3.17409091,4.49829545 C5.02636364,4.48693182 6.87863636,4.49829545 8.71954545,4.49829545 C8.84340909,4.49829545 8.96954545,4.48693182 9.09454545,4.51079545 C9.33318182,4.55511364 9.46954545,4.71420455 9.46954545,4.95284091 C9.46954545,5.19147727 9.34454545,5.36306818 9.10590909,5.40738636 C9.015,5.43011364 8.92409091,5.43011364 8.84340909,5.43011364 L6.02636364,5.43011364 C5.05931818,5.43011364 4.09454545,5.44147727 3.12863636,5.43011364 C2.92295455,5.43011364 2.69568182,5.39602273 2.62863636,5.16875 C2.59340909,5.02102273 2.58204545,4.79488636 2.67409091,4.70397727 C2.78659091,4.58920455 3.00363636,4.49829545 3.17409091,4.49829545" id="Fill-9" fill="#4A4A4A"></path>
            <path d="M11.7645455,22.7821591 L11.7645455,18.6355682 C11.3781818,18.57875 11.3668182,18.57875 11.0486364,18.82875 C10.4918182,19.2594318 10.06,19.2832955 9.54863636,18.9196591 C9.48045455,18.8628409 9.40090909,18.8173864 9.34409091,18.7594318 C9.15090909,18.57875 8.935,18.57875 8.69636364,18.6457955 L8.69636364,22.7946591 C9.10545455,22.5321591 9.48045455,22.3173864 9.85545455,22.06625 C10.1168182,21.8844318 10.3668182,21.8844318 10.6281818,22.06625 C10.9918182,22.3173864 11.3781818,22.5321591 11.7645455,22.7821591 M10.0827273,23.0207955 C9.58272727,23.3503409 9.07136364,23.6582955 8.57136364,23.9764773 C8.38954545,24.0889773 8.20772727,24.1571591 8.00318182,24.0435227 C7.79863636,23.9310227 7.75318182,23.7378409 7.75318182,23.5207955 C7.76454545,22.8401136 7.75318182,22.1457955 7.75318182,21.4526136 L7.75318182,21.1230682 L7.42363636,21.1230682 C5.26454545,21.1230682 3.10545455,21.1355682 0.946363636,21.1230682 C0.423636364,21.1230682 0.287272727,20.9878409 0.287272727,20.4639773 L0.287272727,0.952613636 C0.287272727,0.429886364 0.423636364,0.282159091 0.935,0.282159091 C4.33272727,0.282159091 7.73045455,0.293522727 11.1168182,0.282159091 C11.3781818,0.282159091 11.5713636,0.362840909 11.7531818,0.554886364 C13.0713636,1.87420455 14.3895455,3.20375 15.7190909,4.52193182 C15.8895455,4.69125 15.9690909,4.87306818 15.9690909,5.12306818 L15.9690909,20.4867045 C15.9690909,20.9878409 15.8213636,21.1230682 15.31,21.1230682 C14.4577273,21.1355682 13.6168182,21.1230682 12.7190909,21.1230682 L12.7190909,23.3048864 C12.7190909,23.4082955 12.7304545,23.5105682 12.7190909,23.6014773 C12.7077273,24.0332955 12.3440909,24.2367045 11.9804545,24.0219318 C11.4463636,23.6923864 10.9236364,23.3628409 10.4122727,23.0207955 C10.2872727,22.9423864 10.1963636,22.9423864 10.0827273,23.0207955 M7.53727273,12.8628409 C7.70772727,12.1923864 8.02590909,11.95375 8.71909091,11.9867045 C8.99181818,11.9992045 9.20772727,11.95375 9.42363636,11.7719318 C10.0259091,11.2832955 10.4463636,11.2832955 11.0486364,11.7605682 C11.2645455,11.94125 11.4804545,12.0105682 11.7531818,11.9753409 C12.0713636,11.94125 12.4009091,11.9753409 12.6054545,12.2378409 C12.7645455,12.44125 12.8440909,12.7253409 12.9804545,12.95375 C13.06,13.1117045 13.1509091,13.2935227 13.2872727,13.3844318 C13.9804545,13.8617045 14.1054545,14.1810227 13.8213636,14.9764773 C13.7531818,15.19125 13.7418182,15.3730682 13.8213636,15.5901136 C14.1168182,16.4185227 14.0031818,16.7264773 13.2645455,17.2151136 C13.1622727,17.2821591 13.06,17.3730682 13.0259091,17.4878409 C12.8440909,17.9867045 12.6509091,18.4878409 12.7190909,19.0435227 C12.7531818,19.4185227 12.7190909,19.8060227 12.7190909,20.1798864 L15.0145455,20.1798864 L15.0145455,5.44125 L14.6963636,5.44125 L11.4804545,5.44125 C10.9690909,5.44125 10.8213636,5.28329545 10.8213636,4.77079545 L10.8213636,1.55488636 L10.8213636,1.23670455 L1.24181818,1.23670455 L1.24181818,20.1798864 L7.77590909,20.1798864 C7.66227273,19.4071591 7.91227273,18.6457955 7.59409091,17.8957955 C7.46909091,17.57875 7.36681818,17.2946591 7.06,17.0889773 C6.49181818,16.7139773 6.38954545,16.3628409 6.61681818,15.7253409 C6.73045455,15.4298864 6.73045455,15.1696591 6.62818182,14.8730682 C6.37818182,14.2139773 6.51454545,13.8276136 7.10545455,13.4651136 C7.34409091,13.3173864 7.46909091,13.1355682 7.53727273,12.8628409 M7.50318182,14.5776136 C7.71909091,15.0548864 7.71909091,15.5446591 7.49181818,16.0219318 C7.42363636,16.19125 7.48045455,16.2821591 7.61681818,16.3628409 C8.08272727,16.6014773 8.34409091,16.9764773 8.42363636,17.4753409 C8.45772727,17.6355682 8.53727273,17.7026136 8.70772727,17.6810227 C9.20772727,17.6117045 9.65090909,17.7480682 10.0259091,18.1014773 C10.185,18.2605682 10.31,18.2367045 10.4690909,18.0889773 C10.7872727,17.8173864 11.1395455,17.6117045 11.5940909,17.6810227 C11.7304545,17.6117045 11.9690909,17.8173864 12.0259091,17.5332955 C12.1395455,16.9867045 12.4236364,16.5776136 12.9122727,16.3173864 C12.9690909,16.2821591 13.0145455,16.1457955 12.9918182,16.0889773 C12.7645455,15.5560227 12.7645455,15.0435227 12.9918182,14.5105682 C13.0145455,14.45375 12.9690909,14.3048864 12.9236364,14.2832955 C12.4236364,14.0094318 12.1281818,13.6128409 12.0259091,13.06625 C12.0145455,12.9992045 11.8781818,12.9082955 11.81,12.9185227 C11.2986364,12.9639773 10.8327273,12.8628409 10.4577273,12.4867045 C10.2986364,12.32875 10.1622727,12.3401136 10.0145455,12.4867045 C9.65090909,12.8389773 9.21909091,12.9753409 8.71909091,12.8969318 C8.53727273,12.8730682 8.45772727,12.95375 8.42363636,13.1230682 C8.34409091,13.6344318 8.07136364,13.9992045 7.61681818,14.2367045 C7.45772727,14.3173864 7.42363636,14.4196591 7.50318182,14.5776136 M11.7759091,1.98670455 L11.7759091,4.48670455 L14.2418182,4.48670455 C13.4236364,3.65829545 12.5940909,2.81738636 11.7759091,1.98670455" id="Fill-11" fill="#4A4A4A"></path>
        </g>
    </g>
</svg>