<?xml version="1.0" encoding="UTF-8"?>
<svg width="24px" height="24px" viewBox="0 0 24 24" version="1.1" xmlns="http://www.w3.org/2000/svg" xmlns:xlink="http://www.w3.org/1999/xlink">
    <!-- Generator: Sketch 53.2 (72643) - https://sketchapp.com -->
    <title>icon_profile copy 30</title>
    <desc>Created with Sketch.</desc>
    <g id="icon_profile-copy-30" stroke="none" stroke-width="1" fill="none" fill-rule="evenodd">
        <g id="Group-27" transform="translate(0.000000, 2.000000)">
            <path d="M22.5069677,17.8860387 C22.4411613,17.2519742 22.1036129,16.7177806 21.5516129,16.3546839 C20.3423226,15.5588129 18.156,15.5688774 16.9552258,16.383329 C16.4272258,16.7402323 16.1129032,17.2341677 16.0277419,17.8860387 L22.5069677,17.8860387 Z M23.4375484,18.1872 C23.4584516,18.6060387 23.2873548,18.7732645 22.8692903,18.7732645 C21.6778065,18.7740387 20.4847742,18.7732645 19.2917419,18.7732645 C18.0909677,18.7732645 16.8894194,18.7740387 15.687871,18.7732645 C15.2450323,18.7732645 15.1033548,18.6199742 15.1203871,18.1724903 C15.1730323,16.7526194 15.9634839,15.6532645 17.312129,15.2096516 C18.7652903,14.7312 20.2269677,14.7250065 21.6313548,15.3815226 C22.8034839,15.927329 23.3779355,16.9051355 23.4375484,18.1872 L23.4375484,18.1872 Z" id="Fill-1" fill="#4A4A4A"></path>
            <path d="M19.285471,10.2915097 C20.4343742,10.3023484 21.3796645,11.2437677 21.3548903,12.3756387 C21.3285677,13.5818323 20.4266323,14.4295742 19.2653419,14.4442839 C18.1226323,14.4605419 17.197471,13.4951226 17.1928258,12.3539613 C17.1889548,11.2205419 18.1412129,10.2822194 19.285471,10.2915097 M18.0769548,12.3632516 C18.077729,13.0267355 18.6204387,13.5694452 19.277729,13.5694452 C19.933471,13.568671 20.4846968,13.0174452 20.4839226,12.3624774 C20.4823742,11.7075097 19.9303742,11.1547355 19.2769548,11.1562839 C18.6173419,11.1570581 18.0761806,11.7020903 18.0769548,12.3632516" id="Fill-7" fill="#4A4A4A"></path>
            <path d="M8.56923871,7.8003871 L15.058529,7.8003871 C14.9493677,6.99135484 14.5158194,6.42929032 13.8027871,6.09793548 C12.6500129,5.56064516 11.4546581,5.54825806 10.2616258,5.91909677 C9.34652903,6.20245161 8.72949677,6.79625806 8.56923871,7.8003871 M14.4461419,5.44374194 C15.5153032,6.03445161 15.9829161,7.01612903 15.9744,8.22774194 C15.9736258,8.51729032 15.8288516,8.6636129 15.5199484,8.67290323 C15.1119484,8.68683871 14.7070452,8.67987097 14.2990452,8.67987097 L11.8092387,8.67987097 L8.3067871,8.67987097 C7.75323871,8.67832258 7.63788387,8.57148387 7.66265806,8.03032258 C7.72304516,6.67393548 8.39427097,5.70077419 9.6384,5.21225806 C11.2572387,4.57509677 12.8969806,4.58980645 14.4461419,5.44374194" id="Fill-9" fill="#4A4A4A"></path>
            <path d="M15.0583742,7.8003871 L8.56908387,7.8003871 C8.72934194,6.79625806 9.34637419,6.20245161 10.261471,5.91909677 C11.4545032,5.54825806 12.6506323,5.56064516 13.8026323,6.09793548 C14.5156645,6.42929032 14.9492129,6.99135484 15.0583742,7.8003871" id="Fill-11" fill="#0030A4"></path>
            <path d="M13.9810065,14.0226581 C14.2241032,14.2688516 14.2566194,14.514271 14.0731355,14.7054968 C13.8726194,14.9129806 13.6032,14.8858839 13.3469419,14.6334968 C12.8359742,14.1325935 12.3234581,13.6316903 11.8171355,13.1354323 C11.3851355,13.5558194 10.9477161,13.9824 10.5095226,14.410529 C10.3980387,14.5189161 10.295071,14.6381419 10.1773935,14.7380129 C9.95984516,14.9245935 9.74074839,14.9184 9.55107097,14.7349161 C9.38461935,14.5738839 9.3792,14.3431742 9.54410323,14.1264 C9.59210323,14.0652387 9.64861935,14.0118194 9.70436129,13.9568516 C10.2052645,13.4551742 10.7123613,12.9596903 11.2032,12.4464 C11.2961032,12.3480774 11.3634581,12.1816258 11.3665548,12.0445935 C11.3828129,11.3354323 11.3735226,10.626271 11.375071,9.91788387 C11.3766194,9.80562581 11.3773935,9.68949677 11.4075871,9.58343226 C11.4625548,9.39065806 11.6019097,9.27685161 11.8055226,9.27298065 C12.023071,9.26833548 12.1701677,9.38291613 12.2274581,9.58807742 C12.2576516,9.69414194 12.2576516,9.81104516 12.2584258,9.92252903 C12.2607484,10.6402065 12.2530065,11.3586581 12.2669419,12.0755613 C12.2692645,12.1978839 12.3304258,12.3457548 12.4148129,12.4340129 C12.9288774,12.9713032 13.4576516,13.4938839 13.9810065,14.0226581" id="Fill-13" fill="#4A4A4A"></path>
            <path d="M11.8255742,0.193780645 C12.9682839,0.199974194 13.908929,1.14836129 13.8988645,2.28100645 C13.8888,3.43068387 12.9551226,4.35584516 11.8093161,4.35042581 C10.6704774,4.34500645 9.72983226,3.39971613 9.73525161,2.26397419 C9.74067097,1.1228129 10.6859613,0.186812903 11.8255742,0.193780645 M13.0162839,2.27249032 C13.0162839,1.60668387 12.4797677,1.06784516 11.8162839,1.06784516 C11.1520258,1.06939355 10.6162839,1.60900645 10.6170581,2.2748129 C10.6193806,2.95068387 11.1396387,3.46784516 11.8170581,3.46784516 C12.4952516,3.46784516 13.0155097,2.94836129 13.0162839,2.27249032" id="Fill-15" fill="#4A4A4A"></path>
            <path d="M11.8164387,1.06776774 C12.4791484,1.06776774 13.0164387,1.60660645 13.0164387,2.2724129 C13.0156645,2.94828387 12.4954065,3.46854194 11.8172129,3.46854194 C11.1397935,3.46854194 10.6195355,2.95060645 10.6172129,2.27473548 C10.6164387,1.60892903 11.1521806,1.06931613 11.8164387,1.06776774" id="Fill-17" fill="#0030A4"></path>
            <path d="M7.60304516,17.8868129 C7.51246452,17.1838452 7.1547871,16.6775226 6.57104516,16.3128774 C6.02059355,15.9675871 5.40510968,15.8305548 4.77336774,15.7895226 C3.75375484,15.7237161 2.76433548,15.8344258 1.91581935,16.4785548 C1.45749677,16.8261677 1.19272258,17.295329 1.11685161,17.8868129 L7.60304516,17.8868129 Z M8.51581935,18.2050065 C8.52665806,18.6137806 8.3780129,18.7717161 7.96459355,18.7732645 C6.75452903,18.7740387 5.54523871,18.7740387 4.3344,18.7740387 L0.810270968,18.7740387 C0.33723871,18.7740387 0.185496774,18.6184258 0.194012903,18.1539097 C0.218012903,16.8509419 1.0100129,15.7206194 2.29130323,15.2499097 C3.68020645,14.7381677 5.09698065,14.7265548 6.47117419,15.2700387 C7.77259355,15.7848774 8.47246452,16.7804903 8.51581935,18.2050065 L8.51581935,18.2050065 Z" id="Fill-19" fill="#4A4A4A"></path>
            <path d="M4.39130323,10.2922839 C5.55569032,10.3271226 6.47388387,11.2693161 6.43981935,12.3965419 C6.40420645,13.5702194 5.48910968,14.4574452 4.32859355,14.4427355 C3.16033548,14.4280258 2.24059355,13.4494452 2.27852903,12.3346065 C2.3187871,11.1663484 3.25633548,10.2605419 4.39130323,10.2922839 M3.15027097,12.3632516 C3.15027097,13.0182194 3.70227097,13.5702194 4.35646452,13.5694452 C5.01762581,13.568671 5.5580129,13.0244129 5.55646452,12.3624774 C5.55646452,11.6997677 5.01530323,11.1562839 4.35569032,11.1562839 C3.69994839,11.1570581 3.15027097,11.7082839 3.15027097,12.3632516" id="Fill-23" fill="#4A4A4A"></path>
        </g>
    </g>
</svg>