<?xml version="1.0" encoding="UTF-8"?>
<svg width="24px" height="24px" viewBox="0 0 24 24" version="1.1" xmlns="http://www.w3.org/2000/svg" xmlns:xlink="http://www.w3.org/1999/xlink">
    <!-- Generator: Sketch 53.2 (72643) - https://sketchapp.com -->
    <title>icon_profile copy 21</title>
    <desc>Created with Sketch.</desc>
    <g id="icon_profile-copy-21" stroke="none" stroke-width="1" fill="none" fill-rule="evenodd">
        <g id="Group-9" transform="translate(1.000000, 0.000000)" fill="#6F7473">
            <path d="M20.8257371,17.4842743 C21.0223086,17.1997029 21.00288,16.9608457 20.7834514,16.8088457 C20.5685943,16.6614171 20.3147657,16.7311314 20.1274514,16.9974171 C19.85888,17.3778743 19.5937371,17.7619886 19.3274514,18.1437029 C18.8223086,18.86816 18.3171657,19.5928457 17.80288,20.3311314 C17.2405943,19.8739886 16.6977371,19.4271314 16.1479086,18.9882743 C15.9274514,18.8110171 15.6667657,18.8362743 15.5160229,19.0271314 C15.3605943,19.2237029 15.3960229,19.4671314 15.6187657,19.6511314 C16.2576229,20.1778743 16.8977371,20.7037029 17.5400229,21.2237029 C17.8554514,21.4797029 18.0703086,21.4477029 18.3023086,21.1151314 C19.1445943,19.9058743 19.98688,18.6957029 20.8257371,17.4842743 M17.9834514,14.5974171 C20.5914514,14.6088457 22.6861943,16.71856 22.6713371,19.3174171 C22.6554514,21.9002743 20.53888,23.9894171 17.9503086,23.97456 C15.3845943,23.9608457 13.28288,21.8454171 13.2897371,19.2842743 C13.2953371,16.7002743 15.4131657,14.5870171 17.9834514,14.5974171" id="Fill-1"></path>
            <path d="M8.58454857,5.63628571 C8.58694857,5.38142857 8.42009143,5.23057143 8.11254857,5.20885714 C8.05654857,5.20531429 7.99940571,5.20771429 7.94226286,5.20771429 C6.66683429,5.20771429 5.39254857,5.20645714 4.11712,5.20885714 C4.00397714,5.20885714 3.88626286,5.20885714 3.77883429,5.2396 C3.50454857,5.31857143 3.37426286,5.64417143 3.56054857,5.85114286 C3.66454857,5.96657143 3.86683429,6.04417143 4.02683429,6.05 C4.68283429,6.07171429 5.33997714,6.05914286 5.99609143,6.05914286 L5.99609143,6.05788571 C6.69997714,6.05788571 7.40397714,6.06485714 8.10797714,6.05571429 C8.41654857,6.05114286 8.58340571,5.88885714 8.58454857,5.63628571 L8.58454857,5.63628571 Z M10.2919771,19.2877143 C10.2919771,19.0293143 10.1136914,18.8751429 9.79152,18.8578857 C9.74340571,18.8545714 9.69540571,18.8568571 9.64866286,18.8568571 C7.80397714,18.8568571 5.95940571,18.8557143 4.11597714,18.8578857 C3.99369143,18.8591429 3.83940571,18.8441714 3.75837714,18.9094286 C3.63826286,19.0053143 3.49883429,19.1688571 3.50226286,19.298 C3.50683429,19.4293143 3.65769143,19.5791429 3.77997714,19.674 C3.85540571,19.7311429 3.99940571,19.7094286 4.11254857,19.7094286 C5.03483429,19.7117143 5.95712,19.7104571 6.87940571,19.7104571 C7.84866286,19.7104571 8.81883429,19.714 9.78797714,19.7082857 C10.1114057,19.7071429 10.2908343,19.546 10.2919771,19.2877143 L10.2919771,19.2877143 Z M11.3034057,16.25 C11.4200914,16.1481714 11.5629486,15.9882857 11.5583771,15.8578857 C11.5525486,15.7265714 11.3960914,15.5824571 11.2736914,15.4842857 C11.2062629,15.4293143 11.0726629,15.4522857 10.9685486,15.4511429 C9.82569143,15.45 8.68283429,15.4511429 7.53997714,15.4511429 C6.91140571,15.4511429 6.28283429,15.45 5.65426286,15.4511429 C5.08283429,15.4511429 4.51140571,15.4454286 3.93997714,15.4533143 C3.66112,15.4568571 3.48283429,15.6214286 3.48397714,15.8614286 C3.48512,16.1242857 3.64866286,16.2533143 3.88969143,16.2991429 C3.94454857,16.3094286 4.00283429,16.3058857 4.05997714,16.3058857 C6.36512,16.3058857 8.66912,16.3058857 10.9742629,16.3037143 C11.0862629,16.3037143 11.2314057,16.3117143 11.3034057,16.25 L11.3034057,16.25 Z M14.4279771,9.46942857 C14.7948343,9.46942857 14.9868343,9.31857143 14.9868343,9.04314286 C14.9856914,8.77457143 14.7719771,8.60771429 14.4246629,8.60771429 C10.9685486,8.60771429 7.51140571,8.60771429 4.05540571,8.61228571 C3.94454857,8.61228571 3.80054857,8.61457143 3.72854857,8.67857143 C3.62009143,8.77674286 3.49654857,8.93342857 3.49997714,9.06028571 C3.50454857,9.18702857 3.63940571,9.338 3.75597714,9.42257143 C3.84283429,9.48542857 3.99369143,9.46817143 4.11483429,9.46817143 C5.82009143,9.47057143 7.52397714,9.46942857 9.22912,9.46942857 C10.9616914,9.46942857 12.6954057,9.47057143 14.4279771,9.46942857 L14.4279771,9.46942857 Z M14.3194057,12.8910286 C14.7788343,12.8910286 14.9925486,12.7551429 14.9868343,12.4533143 C14.9822629,12.162 14.7834057,12.0328571 14.3343771,12.0328571 C10.92512,12.0328571 7.51597714,12.0317143 4.10683429,12.0350286 C3.97654857,12.0350286 3.83826286,12.0477143 3.71826286,12.0945714 C3.50797714,12.1767429 3.43140571,12.4088571 3.51940571,12.618 C3.62912,12.8808571 3.85769143,12.8910286 4.09197714,12.8910286 L9.23483429,12.8910286 C10.9298057,12.89 12.6246629,12.89 14.3194057,12.8910286 L14.3194057,12.8910286 Z M18.3868343,6.0636 L18.3868343,13.7207429 C15.6759771,13.7253143 13.6542629,14.8957143 12.7616914,17.5013143 C11.8668343,20.114 12.7616914,22.2694286 14.9296914,23.9562857 L0.0862628571,23.9562857 L0.0862628571,0.107142857 L12.4440914,0.107142857 L12.4440914,3.08771429 L12.4440914,6.0636 L15.4302629,6.0636 L18.3868343,6.0636 Z" id="Fill-5"></path>
            <path d="M17.636,5.18595429 L13.3034286,5.18595429 L13.3034286,0.82024 C14.7525714,2.28081143 16.2074286,3.74595429 17.636,5.18595429" id="Fill-7"></path>
        </g>
    </g>
</svg>