<?xml version="1.0" encoding="UTF-8"?>
<svg width="24px" height="24px" viewBox="0 0 24 24" version="1.1" xmlns="http://www.w3.org/2000/svg" xmlns:xlink="http://www.w3.org/1999/xlink">
    <!-- Generator: Sketch 53.2 (72643) - https://sketchapp.com -->
    <title>icon_profile copy 36</title>
    <desc>Created with Sketch.</desc>
    <g id="icon_profile-copy-36" stroke="none" stroke-width="1" fill="none" fill-rule="evenodd">
        <g id="Group-7" transform="translate(1.000000, 0.000000)">
            <path d="M5.8455,2.3125 C6.50675,1.66125 7.3205,1.4875 8.1955,1.66125 C8.7705,1.7875 9.3455,1.95 9.88175,2.15 C10.533,2.3875 11.158,2.375 11.7955,2.15 C12.23175,1.97375 12.6705,1.7875 13.11925,1.6375 C13.708,1.425 14.283,1.3875 14.83175,1.8125 C14.0705,3.2375 13.31925,4.65 12.54425,6.0625 C12.5205,6.125 12.408,6.1875 12.33175,6.1875 L8.558,6.1875 C8.4705,6.1875 8.358,6.125 8.308,6.05 C7.49425,4.8375 6.683,3.6125 5.88175,2.3875 C5.858,2.3625 5.858,2.3375 5.8455,2.3125" id="Fill-1" fill="#0030A4"></path>
            <path d="M11.507125,15.175 C12.532125,15.26125 13.319625,16.1875 13.307125,17.225 C13.295875,18.28625 12.508375,19.16125 11.470875,19.25 C11.382125,19.25 11.294625,19.2625 11.169625,19.2875 C11.169625,19.5625 11.169625,19.84875 11.158375,20.125 C11.158375,20.375 11.032125,20.55 10.795875,20.65 C10.569625,20.75 10.344625,20.7125 10.194625,20.5375 C10.082125,20.41125 10.020875,20.21125 9.994625,20.0375 C9.970875,19.8 9.994625,19.55 9.994625,19.2625 C9.595875,19.2625 9.207125,19.27375 8.820875,19.2625 C8.569625,19.2625 8.395875,19.1375 8.295875,18.89875 C8.195875,18.675 8.233375,18.45 8.408375,18.3 C8.545875,18.1875 8.758375,18.1 8.944625,18.1 C9.708375,18.07375 10.483375,18.0875 11.244625,18.0875 C11.683375,18.0875 11.983375,17.85 12.095875,17.4375 C12.208375,17.075 12.069625,16.66125 11.720875,16.46125 C11.544625,16.3625 11.320875,16.3375 11.119625,16.325 C10.645875,16.29875 10.170875,16.325 9.695875,16.2875 C8.894625,16.225 8.332125,15.78625 8.019625,15.075 C7.707125,14.3625 7.783375,13.6625 8.245875,13.02375 C8.658375,12.44875 9.257125,12.225 9.982125,12.1625 L9.982125,11.41125 C9.994625,11.025 10.220875,10.77375 10.569625,10.77375 C10.908375,10.77375 11.144625,11.0125 11.169625,11.3875 L11.169625,11.77375 L11.169625,12.175 C11.557125,12.175 11.907125,12.1625 12.269625,12.175 C12.608375,12.18625 12.857125,12.4375 12.870875,12.76125 C12.883375,13.07375 12.632125,13.325 12.282125,13.3625 L11.995875,13.3625 C11.282125,13.3625 10.557125,13.3625 9.832125,13.375 C9.469625,13.375 9.220875,13.58625 9.083375,13.9375 C8.944625,14.27375 8.994625,14.625 9.269625,14.84875 C9.457125,14.99875 9.732125,15.09875 9.982125,15.125 C10.494625,15.175 11.008375,15.125 11.507125,15.175" id="Fill-3" fill="#4A4A4A"></path>
            <path d="M19.369625,19.80025 C19.507125,18.23775 19.233375,16.7115 18.719625,15.23775 C17.594625,12.024 15.494625,9.524 12.807125,7.47525 C12.720875,7.41275 12.608375,7.37525 12.494625,7.37525 C11.132125,7.36275 9.769625,7.36275 8.407125,7.37525 C8.307125,7.37525 8.169625,7.42525 8.083375,7.4865 C6.219625,8.87525 4.669625,10.53775 3.458375,12.52525 C2.157125,14.66275 1.457125,16.98775 1.507125,19.50025 C1.520875,20.53775 1.995875,21.38775 2.794625,22.024 C3.445875,22.549 4.220875,22.7615 5.044625,22.7615 L10.457125,22.7615 L15.669625,22.7615 C15.932125,22.7615 16.182125,22.749 16.432125,22.72525 C17.957125,22.56275 19.233375,21.31275 19.369625,19.80025 M19.919625,15.07525 C20.407125,16.57525 20.657125,18.124 20.583375,19.71275 C20.494625,21.75025 18.732125,23.6365 16.707125,23.87525 C16.394625,23.9115 16.082125,23.92525 15.769625,23.92525 C12.182125,23.93775 8.595875,23.93775 5.008375,23.92525 C3.233375,23.92525 1.869625,23.174 0.945875,21.649 C0.494625,20.924 0.294625,20.11275 0.307125,19.2615 C0.370875,15.55025 1.783375,12.37525 4.157125,9.574 C5.032125,8.5365 6.008375,7.599 7.082125,6.7615 C7.132125,6.724 7.182125,6.67525 7.245875,6.6115 C6.957125,6.17525 6.683375,5.75025 6.394625,5.3115 C5.807125,4.43775 5.232125,3.56275 4.645875,2.67525 C4.369625,2.25025 4.407125,2.05025 4.758375,1.68775 C5.507125,0.9365 6.382125,0.4615 7.458375,0.43775 C8.257125,0.4115 9.032125,0.5615 9.745875,0.874 C10.557125,1.21275 11.294625,1.16275 12.069625,0.80025 C12.558375,0.574 13.094625,0.42525 13.632125,0.33775 C14.582125,0.199 15.357125,0.6115 16.019625,1.27525 C16.232125,1.499 16.232125,1.7115 16.058375,2.05025 C15.470875,3.15025 14.869625,4.25025 14.283375,5.33775 C14.070875,5.75025 13.844625,6.16275 13.619625,6.58775 C13.982125,6.88775 14.357125,7.1865 14.708375,7.499 C17.082125,9.574 18.908375,12.05025 19.919625,15.07525 M8.195875,1.6615 C7.319625,1.48775 6.507125,1.6615 5.845875,2.31275 C5.857125,2.3365 5.857125,2.36275 5.882125,2.3865 C6.683375,3.61275 7.494625,4.8365 8.307125,6.05025 C8.357125,6.12525 8.469625,6.1865 8.558375,6.1865 L12.332125,6.1865 C12.408375,6.1865 12.520875,6.12525 12.544625,6.06275 C13.319625,4.65025 14.070875,3.23775 14.832125,1.8115 C14.283375,1.38775 13.708375,1.42525 13.119625,1.63775 C12.670875,1.78775 12.232125,1.974 11.794625,2.15025 C11.158375,2.37525 10.533375,2.3865 9.882125,2.15025 C9.344625,1.95025 8.770875,1.78775 8.195875,1.6615" id="Fill-5" fill="#4A4A4A"></path>
        </g>
    </g>
</svg>