<?xml version="1.0" encoding="UTF-8"?>
<svg width="24px" height="24px" viewBox="0 0 24 24" version="1.1" xmlns="http://www.w3.org/2000/svg" xmlns:xlink="http://www.w3.org/1999/xlink">
    <!-- Generator: Sketch 53.2 (72643) - https://sketchapp.com -->
    <title>icon_profile copy 32</title>
    <desc>Created with Sketch.</desc>
    <g id="icon_profile-copy-32" stroke="none" stroke-width="1" fill="none" fill-rule="evenodd">
        <g id="Group-15" transform="translate(2.000000, 0.000000)">
            <path d="M18.0093,7.8205 L13.8803,7.8205 L13.8803,3.6915 C15.2563,5.0685 16.6333,6.4445 18.0093,7.8205" id="Fill-1" fill="#0030A4"></path>
            <path d="M7.5102,7.8439 L5.9622,7.8439 C5.6332,7.8439 5.4402,7.6849 5.4502,7.4339 C5.4502,7.1839 5.6332,7.0469 5.9622,7.0469 C6.5882,7.0359 7.2252,7.0469 7.8632,7.0469 L9.7622,7.0469 C9.9892,7.0469 10.1712,7.1149 10.2292,7.3659 C10.2852,7.6509 10.0922,7.8439 9.7392,7.8439 L7.5102,7.8439 Z" id="Fill-3" fill="#4A4A4A"></path>
            <path d="M15.7007,20.6642 L5.9857,20.6642 C5.8717,20.6642 5.7347,20.6522 5.6557,20.5962 C5.5647,20.5052 5.4627,20.3682 5.4627,20.2432 C5.4627,20.1292 5.5757,19.9922 5.6787,19.9132 C5.7587,19.8562 5.8937,19.8562 6.0087,19.8562 L10.8437,19.8562 L15.6667,19.8562 C15.7797,19.8562 15.9167,19.8452 15.9957,19.9132 C16.1097,19.9922 16.2227,20.1412 16.2227,20.2542 C16.2227,20.3802 16.1097,20.5162 16.0077,20.6062 C15.9277,20.6642 15.8027,20.6642 15.7007,20.6642" id="Fill-5" fill="#4A4A4A"></path>
            <path d="M5.9858,13.4406 L15.6428,13.4406 L15.7458,13.4406 C16.0638,13.4526 16.2468,13.5996 16.2468,13.8496 C16.2468,14.1006 16.0758,14.2486 15.7458,14.2486 L10.8658,14.2486 L6.0648,14.2486 C5.9738,14.2486 5.8828,14.2486 5.8028,14.2366 C5.5878,14.2136 5.4628,14.0776 5.4508,13.8616 C5.4398,13.6566 5.5528,13.5196 5.7468,13.4746 C5.8268,13.4526 5.9058,13.4406 5.9858,13.4406" id="Fill-7" fill="#4A4A4A"></path>
            <path d="M15.6665,17.4562 L10.8435,17.4562 L6.0645,17.4562 C5.9855,17.4562 5.9055,17.4562 5.8265,17.4442 C5.5995,17.4222 5.4625,17.2972 5.4505,17.0692 C5.4395,16.8522 5.5645,16.7172 5.7805,16.6712 C5.8495,16.6482 5.9395,16.6482 6.0205,16.6482 L15.6665,16.6482 C15.7915,16.6482 15.9385,16.6482 16.0295,16.7172 C16.1325,16.7962 16.2345,16.9442 16.2345,17.0582 C16.2345,17.1722 16.1215,17.3192 16.0195,17.3882 C15.9385,17.4562 15.7915,17.4562 15.6665,17.4562" id="Fill-9" fill="#4A4A4A"></path>
            <path d="M15.6089,10.2443 C15.7119,10.2443 15.8139,10.2443 15.9049,10.2553 C16.1099,10.2893 16.2349,10.4143 16.2349,10.6193 C16.2469,10.8243 16.1549,10.9723 15.9509,11.0173 C15.8599,11.0403 15.7569,11.0523 15.6669,11.0523 L5.9859,11.0523 C5.8939,11.0523 5.7579,11.0523 5.7009,11.0063 C5.5989,10.9033 5.4849,10.7663 5.4629,10.6313 C5.4279,10.4483 5.5649,10.3123 5.7469,10.2663 C5.8489,10.2443 5.9629,10.2553 6.0649,10.2553 C7.6699,10.2443 9.2729,10.2443 10.8659,10.2443 L15.6089,10.2443 Z" id="Fill-11" fill="#4A4A4A"></path>
            <path d="M18.6352,8.6398 L13.0492,8.6398 L13.0492,3.0548 L3.0502,3.0548 L3.0502,23.4518 L18.6352,23.4518 L18.6352,8.6398 Z M19.4542,8.2758 L19.4542,24.0198 C19.4542,24.0878 19.4542,24.1568 19.4432,24.2468 L2.2422,24.2468 L2.2422,22.2798 L0.2522,22.2798 L0.2522,0.2448 L17.4512,0.2448 L17.4512,0.5748 L17.4512,5.7958 C17.4512,6.0008 17.5092,6.1488 17.6562,6.2858 C18.2142,6.8198 18.7482,7.3668 19.2942,7.9118 C19.3742,8.0028 19.4542,8.1618 19.4542,8.2758 L19.4542,8.2758 Z M13.8802,3.6918 L13.8802,7.8208 L18.0092,7.8208 C16.6332,6.4448 15.2562,5.0688 13.8802,3.6918 L13.8802,3.6918 Z M16.4162,5.0348 C16.4852,5.0908 16.5532,5.1598 16.6442,5.2388 L16.6442,1.0528 L1.0602,1.0528 L1.0602,21.4488 L2.2422,21.4488 L2.2422,2.2238 L2.5042,2.2238 C6.1332,2.2238 9.7622,2.2238 13.3912,2.2358 C13.5162,2.2358 13.6752,2.3038 13.7782,2.4068 C14.6642,3.2708 15.5402,4.1588 16.4162,5.0348 L16.4162,5.0348 Z" id="Fill-13" fill="#4A4A4A"></path>
        </g>
    </g>
</svg>