<?xml version="1.0" encoding="UTF-8"?>
<svg width="24px" height="24px" viewBox="0 0 24 24" version="1.1" xmlns="http://www.w3.org/2000/svg" xmlns:xlink="http://www.w3.org/1999/xlink">
    <!-- Generator: Sketch 53.2 (72643) - https://sketchapp.com -->
    <title>icon_profile copy 29</title>
    <desc>Created with Sketch.</desc>
    <g id="icon_profile-copy-29" stroke="none" stroke-width="1" fill="none" fill-rule="evenodd">
        <g id="Group-5">
            <path d="M12.390528,4.511712 C12.770688,4.592352 13.130688,4.707552 13.421568,4.992672 C13.510848,5.079072 13.660608,5.135712 13.787328,5.145312 C15.224448,5.250912 15.915648,5.902752 16.132608,7.353312 C16.301568,8.475552 16.227648,9.591072 16.069248,10.705632 C16.040448,10.911072 16.083648,11.062752 16.249728,11.202912 C16.473408,11.390112 16.497408,11.667552 16.480128,11.935392 C16.465728,12.164832 16.415808,12.393312 16.369728,12.618912 C16.319808,12.849312 16.193088,13.021152 15.969408,13.120032 C15.619968,13.274592 15.423168,13.550112 15.355008,13.920672 C15.224448,14.628192 14.972928,15.279072 14.571648,15.886752 C14.406528,16.135392 14.318208,16.474272 14.299008,16.778592 C14.242368,17.732832 14.403648,18.645792 15.043968,19.407072 C15.493248,19.942752 16.081728,20.294112 16.702848,20.592672 C16.941888,20.707872 17.184768,20.813472 17.445888,20.932512 C13.865088,23.200032 9.295488,23.017632 6.119808,20.953632 C6.644928,20.664672 7.205568,20.402592 7.719168,20.067552 C9.033408,19.209312 9.362688,17.922912 9.180288,16.453152 C9.151488,16.226592 9.031488,15.994272 8.899968,15.801312 C8.554368,15.287712 8.317248,14.732832 8.213568,14.126112 C8.132928,13.648992 7.941888,13.263072 7.465728,13.072992 C7.450368,13.066272 7.435008,13.057632 7.419648,13.048992 C6.995328,12.757152 6.898368,11.521632 7.289088,11.189472 C7.441728,11.059872 7.479168,10.923552 7.451328,10.740192 C7.348608,10.011552 7.222848,9.283872 7.155648,8.551392 C7.068288,7.609632 7.195968,6.701472 7.800768,5.920992 C8.271168,5.314272 8.922048,4.978272 9.632448,4.749792 C10.531968,4.459872 11.447808,4.311072 12.390528,4.511712" id="Fill-1" fill="#0030A4"></path>
            <path d="M19.917696,18.84048 C22.186176,16.188 23.044416,13.1064 22.366656,9.6936 C21.626496,5.97456 19.448256,3.31344 15.963456,1.80816 C12.981696,0.51984 9.948096,0.58224 7.057536,2.03184 C3.089856,4.02 1.113216,7.34928 0.898176,11.98992 C0.990336,12.61488 1.054656,13.46448 1.248576,14.28432 C1.834176,16.75824 3.160896,18.76944 5.172096,20.3256 C5.249856,20.38512 5.403456,20.4312 5.481216,20.39664 C6.063936,20.13168 6.655296,19.87248 7.210176,19.55376 C7.965696,19.11984 8.430336,18.45936 8.494656,17.56848 C8.526336,17.12016 8.642496,16.64784 8.359296,16.2408 C7.900416,15.58032 7.621056,14.85552 7.469376,14.07024 C7.447296,13.95504 7.347456,13.81104 7.244736,13.76208 C6.810816,13.55664 6.580416,13.21008 6.470016,12.76368 C6.316416,12.14448 6.229056,11.52048 6.590016,10.9464 C6.713856,10.75056 6.721536,10.58256 6.688896,10.37328 C6.537216,9.42672 6.372096,8.4792 6.461376,7.51344 C6.571776,6.32304 7.079616,5.34384 8.096256,4.70928 C9.402816,3.8952 10.841856,3.56688 12.377856,3.79344 C12.844416,3.86256 13.292736,4.00944 13.684416,4.29936 C13.798656,4.38288 13.953216,4.44432 14.095296,4.45776 C15.264576,4.57104 16.296576,5.26608 16.648896,6.47856 C16.969536,7.58544 16.971456,8.71152 16.875456,9.84336 C16.837056,10.2984 16.783296,10.70832 17.025216,11.1672 C17.363136,11.80944 17.179776,12.51312 16.891776,13.14864 C16.790976,13.37136 16.560576,13.56048 16.347456,13.70064 C16.166016,13.82064 16.063296,13.94256 16.022976,14.1528 C15.909696,14.74416 15.765696,15.33936 15.407616,15.828 C15.053376,16.31088 14.953536,16.82064 14.999616,17.39664 C15.064896,18.20016 15.361536,18.86832 16.018176,19.35984 C16.643136,19.82544 17.337216,20.15568 18.066816,20.41104 C18.135936,20.43408 18.256896,20.4024 18.311616,20.35056 C18.855936,19.85616 19.442496,19.39536 19.917696,18.84048 M11.777856,0.24048 C18.133056,0.252 23.287296,5.42064 23.278656,11.77296 C23.270976,18.13488 18.105216,23.2872 11.741376,23.27952 C5.384256,23.27376 0.225216,18.09456 0.239616,11.73744 C0.254976,5.38032 5.425536,0.22896 11.777856,0.24048 M8.214336,14.12592 C8.317056,14.7336 8.554176,15.28752 8.899776,15.80112 C9.031296,15.99408 9.151296,16.2264 9.180096,16.45392 C9.362496,17.92272 9.033216,19.20912 7.718976,20.06736 C7.205376,20.4024 6.644736,20.66448 6.119616,20.95344 C9.296256,23.0184 13.864896,23.19984 17.445696,20.93328 C17.184576,20.81424 16.941696,20.70768 16.702656,20.59248 C16.081536,20.29488 15.494016,19.94256 15.043776,19.40688 C14.403456,18.6456 14.242176,17.7336 14.298816,16.77936 C14.318016,16.47408 14.406336,16.13616 14.572416,15.88656 C14.973696,15.27888 15.224256,14.628 15.354816,13.92048 C15.422976,13.54992 15.619776,13.2744 15.969216,13.11984 C16.192896,13.02096 16.319616,12.84912 16.369536,12.61968 C16.416576,12.39312 16.465536,12.16464 16.479936,11.93616 C16.497216,11.66736 16.473216,11.38992 16.249536,11.20272 C16.083456,11.06256 16.040256,10.91088 16.069056,10.70544 C16.227456,9.59088 16.301376,8.47536 16.133376,7.35312 C15.915456,5.90256 15.224256,5.25072 13.787136,5.14512 C13.660416,5.13648 13.510656,5.07888 13.421376,4.99248 C13.131456,4.70736 12.771456,4.59216 12.390336,4.51152 C11.447616,4.31088 10.532736,4.46064 9.632256,4.7496 C8.921856,4.97904 8.270976,5.31408 7.800576,5.9208 C7.195776,6.70128 7.068096,7.60944 7.155456,8.5512 C7.222656,9.28368 7.348416,10.01136 7.452096,10.74 C7.478976,10.92336 7.441536,11.06064 7.288896,11.18928 C6.898176,11.52144 6.995136,12.75696 7.419456,13.0488 C7.434816,13.0584 7.450176,13.06608 7.465536,13.0728 C7.941696,13.26288 8.133696,13.6488 8.214336,14.12592" id="Fill-3" fill="#4A4A4A"></path>
        </g>
    </g>
</svg>