<?xml version="1.0" encoding="UTF-8"?>
<svg width="24px" height="25px" viewBox="0 0 24 25" version="1.1" xmlns="http://www.w3.org/2000/svg" xmlns:xlink="http://www.w3.org/1999/xlink">
    <!-- Generator: Sketch 53.2 (72643) - https://sketchapp.com -->
    <title>icon_profile copy 26</title>
    <desc>Created with Sketch.</desc>
    <defs>
        <polygon id="path-1" points="0 24.5 21.036 24.5 21.036 0 0 0"></polygon>
    </defs>
    <g id="icon_profile-copy-26" stroke="none" stroke-width="1" fill="none" fill-rule="evenodd">
        <g id="Group-19" transform="translate(1.000000, 0.000000)">
            <path d="M13.7072,15.1984 C13.8772,15.1164 13.9252,15.0084 13.9242,14.8254 C13.9162,13.2844 13.9192,11.7434 13.9192,10.2014 C13.9192,10.1074 13.9092,10.0134 13.9052,9.9114 L13.0262,9.9114 L13.0262,15.6034 C13.2672,15.4584 13.4782,15.3104 13.7072,15.1984 M17.6972,14.9194 L17.6972,7.4044 L16.8112,7.4044 L16.8112,14.6874 C17.1122,14.7654 17.3952,14.8404 17.6972,14.9194 M19.8082,19.5234 C19.8162,17.3304 18.1202,15.5854 15.9732,15.5804 C13.8732,15.5754 12.1502,17.2964 12.1362,19.4134 C12.1222,21.5134 13.8142,23.2424 15.9112,23.2684 C17.9992,23.2964 19.8012,21.5624 19.8082,19.5234 M18.8872,15.6154 C20.8922,17.1904 21.3892,19.9354 19.9952,22.0604 C18.3302,24.6004 14.9732,24.9004 12.8792,23.1184 C11.0092,21.5254 10.6162,18.9514 11.8982,16.8494 C11.9802,16.7154 12.0302,16.5374 12.0302,16.3794 C12.0382,14.1224 12.0352,11.8644 12.0362,9.6074 C12.0362,9.0814 12.1782,8.9394 12.7022,8.9364 C13.2102,8.9354 13.7192,8.9354 14.2282,8.9364 C14.7622,8.9394 14.9022,9.0814 14.9022,9.6264 C14.9032,11.2044 14.9032,12.7844 14.9032,14.3634 L14.9032,14.7224 C15.2332,14.6794 15.5202,14.6434 15.8292,14.6034 L15.8292,14.2684 L15.8292,7.0694 C15.8292,6.5604 15.9732,6.4134 16.4762,6.4114 C17.0022,6.4094 17.5282,6.4094 18.0552,6.4114 C18.5412,6.4134 18.6862,6.5634 18.6862,7.0554 C18.6872,9.7684 18.6882,12.4814 18.6832,15.1934 C18.6832,15.3824 18.7382,15.4984 18.8872,15.6154" id="Fill-1" fill="#4A4A4A"></path>
            <path d="M17.6975,7.4045 L17.6975,14.9195 C17.3945,14.8405 17.1125,14.7655 16.8115,14.6875 L16.8115,7.4045 L17.6975,7.4045 Z" id="Fill-3" fill="#FFFFFF"></path>
            <path d="M17.0608,18.7004 C17.0628,18.9144 16.9568,19.0444 16.7678,19.0654 C16.5798,19.0864 16.4428,18.9694 16.3918,18.7714 C16.3608,18.6534 16.3148,18.5264 16.2378,18.4354 C16.1228,18.3024 15.9568,18.2884 15.7998,18.3664 C15.6388,18.4464 15.5468,18.5834 15.5568,18.7644 C15.5668,18.9454 15.6598,19.0774 15.8358,19.1354 C15.8998,19.1554 15.9668,19.1664 16.0338,19.1704 C16.5358,19.2054 16.9248,19.5404 17.0398,20.0384 C17.1398,20.4684 16.9018,20.9834 16.4868,21.1964 C16.3738,21.2544 16.3708,21.3284 16.3638,21.4294 C16.3478,21.7204 16.0688,21.8704 15.8488,21.7004 C15.7768,21.6454 15.7278,21.5304 15.7138,21.4364 C15.7008,21.3314 15.6688,21.2814 15.5688,21.2404 C15.1758,21.0834 14.9678,20.7754 14.9028,20.3654 C14.8648,20.1244 14.9708,19.9534 15.1708,19.9194 C15.3668,19.8864 15.5148,20.0204 15.5538,20.2664 C15.5958,20.5274 15.7578,20.6694 15.9988,20.6544 C16.2138,20.6414 16.3798,20.4744 16.3868,20.2624 C16.3958,20.0344 16.2318,19.8454 15.9768,19.8334 C15.1738,19.7944 14.7798,19.0894 14.9328,18.4834 C15.0118,18.1704 15.1908,17.9224 15.4858,17.7914 C15.6448,17.7204 15.7218,17.6534 15.7138,17.4664 C15.7078,17.2984 15.8058,17.1584 15.9918,17.1304 C16.1498,17.1034 16.2648,17.1794 16.3368,17.3154 C16.3598,17.3574 16.3798,17.4124 16.3728,17.4564 C16.3368,17.6724 16.4568,17.7744 16.6218,17.8834 C16.9118,18.0734 17.0398,18.3664 17.0608,18.7004" id="Fill-5" fill="#FFFFFF"></path>
            <path d="M15.9729,15.5803 C18.1199,15.5853 19.8169,17.3303 19.8079,19.5233 C19.8009,21.5623 17.9989,23.2963 15.9109,23.2683 C13.8149,23.2423 12.1219,21.5143 12.1359,19.4133 C12.1509,17.2963 13.8729,15.5753 15.9729,15.5803 M16.3919,18.7713 C16.4429,18.9693 16.5789,19.0863 16.7679,19.0653 C16.9559,19.0443 17.0629,18.9143 17.0609,18.7003 C17.0399,18.3663 16.9109,18.0733 16.6209,17.8833 C16.4559,17.7743 16.3369,17.6723 16.3719,17.4563 C16.3799,17.4123 16.3599,17.3573 16.3369,17.3153 C16.2649,17.1793 16.1499,17.1033 15.9919,17.1303 C15.8059,17.1583 15.7079,17.2983 15.7139,17.4663 C15.7219,17.6533 15.6449,17.7203 15.4859,17.7913 C15.1909,17.9223 15.0119,18.1703 14.9329,18.4833 C14.7799,19.0893 15.1739,19.7943 15.9769,19.8333 C16.2319,19.8453 16.3959,20.0343 16.3869,20.2623 C16.3799,20.4753 16.2139,20.6423 15.9989,20.6543 C15.7579,20.6693 15.5959,20.5273 15.5539,20.2673 C15.5149,20.0203 15.3669,19.8863 15.1709,19.9193 C14.9709,19.9533 14.8649,20.1243 14.9029,20.3653 C14.9679,20.7753 15.1759,21.0833 15.5689,21.2403 C15.6689,21.2813 15.7009,21.3313 15.7139,21.4363 C15.7279,21.5303 15.7769,21.6453 15.8489,21.7003 C16.0689,21.8703 16.3479,21.7203 16.3639,21.4303 C16.3699,21.3283 16.3739,21.2543 16.4869,21.1963 C16.9019,20.9833 17.1399,20.4683 17.0399,20.0383 C16.9249,19.5403 16.5349,19.2053 16.0339,19.1703 C15.9669,19.1663 15.8999,19.1553 15.8359,19.1353 C15.6599,19.0773 15.5669,18.9453 15.5569,18.7653 C15.5469,18.5833 15.6389,18.4463 15.7999,18.3663 C15.9569,18.2883 16.1219,18.3023 16.2379,18.4353 C16.3149,18.5263 16.3609,18.6533 16.3919,18.7713" id="Fill-7" fill="#0030A4"></path>
            <path d="M13.924,14.8254 C13.925,15.0084 13.877,15.1164 13.707,15.1984 C13.478,15.3104 13.267,15.4584 13.027,15.6034 L13.027,9.9114 L13.905,9.9114 C13.909,10.0134 13.919,10.1074 13.919,10.2014 C13.919,11.7434 13.916,13.2844 13.924,14.8254" id="Fill-9" fill="#FFFFFF"></path>
            <mask id="mask-2" fill="white">
                <use xlink:href="#path-1"></use>
            </mask>
            <g id="Clip-12"></g>
            <path d="M9.245,20.469 L10.136,20.469 L10.136,12.691 L9.245,12.691 L9.245,20.469 Z M11.117,12.361 C11.118,14.349 11.117,16.338 11.117,18.327 C11.117,19.147 11.118,19.967 11.117,20.786 C11.116,21.298 10.954,21.46 10.446,21.46 C9.929,21.461 9.411,21.462 8.894,21.46 C8.423,21.459 8.245,21.284 8.243,20.816 C8.241,19.405 8.242,17.996 8.242,16.588 L8.242,12.386 C8.243,11.857 8.398,11.704 8.933,11.703 C9.442,11.702 9.95,11.702 10.457,11.703 C10.952,11.704 11.116,11.867 11.117,12.361 L11.117,12.361 Z" id="Fill-11" fill="#4A4A4A" mask="url(#mask-2)"></path>
            <polygon id="Fill-13" fill="#FFFFFF" mask="url(#mask-2)" points="9.245 20.469 10.136 20.469 10.136 12.691 9.245 12.691"></polygon>
            <path d="M5.41,20.478 L6.289,20.478 L6.289,13.813 L5.41,13.813 L5.41,20.478 Z M6.625,12.828 C7.14,12.829 7.279,12.966 7.28,13.475 C7.28,14.69 7.28,15.904 7.28,17.116 C7.28,18.321 7.28,19.527 7.28,20.732 C7.28,21.252 7.128,21.405 6.616,21.406 C6.081,21.407 5.546,21.409 5.01,21.406 C4.598,21.404 4.424,21.232 4.423,20.818 C4.421,18.344 4.421,15.872 4.423,13.401 C4.424,12.992 4.589,12.831 4.992,12.829 C5.536,12.825 6.08,12.827 6.625,12.828 L6.625,12.828 Z" id="Fill-14" fill="#4A4A4A" mask="url(#mask-2)"></path>
            <polygon id="Fill-15" fill="#FFFFFF" mask="url(#mask-2)" points="5.41 20.478 6.289 20.478 6.289 13.813 5.41 13.813"></polygon>
            <path d="M1.563,20.47 L2.454,20.47 L2.454,17.982 L1.563,17.982 L1.563,20.47 Z M2.86,16.989 C3.268,16.994 3.439,17.17 3.441,17.586 C3.446,18.664 3.447,19.743 3.441,20.822 C3.439,21.246 3.275,21.404 2.853,21.406 C2.292,21.409 1.73,21.41 1.168,21.405 C0.757,21.403 0.58,21.226 0.577,20.818 C0.572,20.274 0.576,19.73 0.576,19.185 C0.576,18.659 0.572,18.133 0.576,17.608 C0.579,17.189 0.76,16.996 1.174,16.989 C1.736,16.981 2.297,16.981 2.86,16.989 L2.86,16.989 Z" id="Fill-16" fill="#4A4A4A" mask="url(#mask-2)"></path>
            <polygon id="Fill-17" fill="#FFFFFF" mask="url(#mask-2)" points="1.563 20.47 2.454 20.47 2.454 17.982 1.563 17.982"></polygon>
            <path d="M12.1301,6.4074 C12.1431,6.4194 12.1581,6.4284 12.1981,6.4564 C13.9251,4.7064 15.6401,2.9694 17.3601,1.2264 L15.6231,1.2264 C15.5071,1.2264 15.3901,1.2304 15.2761,1.2204 C14.9931,1.1954 14.8191,1.0154 14.8161,0.7604 C14.8141,0.4964 14.9991,0.2824 15.2741,0.2594 C15.4581,0.2434 15.6471,0.2534 15.8341,0.2534 C16.7091,0.2524 17.5831,0.2514 18.4571,0.2534 C18.9311,0.2544 19.1061,0.4284 19.1051,0.8994 C19.1041,1.8994 19.1001,2.8984 19.0971,3.8974 C19.0971,3.9764 19.0941,4.0584 19.0781,4.1364 C19.0261,4.4104 18.8161,4.5924 18.5851,4.5694 C18.3241,4.5454 18.1381,4.3464 18.1351,4.0614 C18.1291,3.4554 18.1321,2.8474 18.1321,2.2414 L18.1321,1.9274 C18.0231,2.0294 17.9531,2.0934 17.8871,2.1594 C16.1531,3.8954 14.4211,5.6334 12.6871,7.3694 C12.2881,7.7684 12.0811,7.7614 11.6781,7.3644 C11.1181,6.8154 10.5511,6.2744 9.9661,5.7094 C9.9201,5.7524 9.8431,5.8214 9.7701,5.8954 C6.9041,8.7594 4.0421,11.6244 1.1731,14.4844 C1.0481,14.6084 0.8761,14.7084 0.7081,14.7614 C0.5221,14.8194 0.3301,14.7194 0.2741,14.5394 C0.2271,14.3874 0.2581,14.2014 0.2931,14.0394 C0.3121,13.9564 0.4111,13.8874 0.4801,13.8194 C3.4881,10.8074 6.4981,7.7994 9.5081,4.7904 C9.8721,4.4264 10.1121,4.4284 10.4861,4.7944 C11.0351,5.3324 11.5821,5.8694 12.1301,6.4074" id="Fill-18" fill="#4A4A4A" mask="url(#mask-2)"></path>
        </g>
    </g>
</svg>