<?xml version="1.0" encoding="UTF-8"?>
<svg width="24px" height="24px" viewBox="0 0 24 24" version="1.1" xmlns="http://www.w3.org/2000/svg" xmlns:xlink="http://www.w3.org/1999/xlink">
    <!-- Generator: Sketch 53.2 (72643) - https://sketchapp.com -->
    <title>icon_profile copy 34</title>
    <desc>Created with Sketch.</desc>
    <g id="icon_profile-copy-34" stroke="none" stroke-width="1" fill="none" fill-rule="evenodd">
        <g id="Group-15">
            <path d="M12.6183273,6.02836364 C12.6074182,6.42109091 12.3019636,6.71563636 11.9310545,6.69381818 C11.5056,6.68290909 11.2328727,6.38836364 11.2437818,5.98472727 C11.2546909,5.592 11.5601455,5.30836364 11.9539636,5.31927273 C12.3346909,5.33018182 12.6303273,5.64654545 12.6183273,6.02836364" id="Fill-1" fill="#0030A4"></path>
            <path d="M11.9311636,9.07210909 C12.3675273,9.07210909 12.6304364,9.41029091 12.6304364,9.97756364 L12.6304364,13.8066545 L12.6304364,17.7012 C12.6304364,18.0284727 12.5529818,18.3219273 12.2268,18.4757455 C11.8002545,18.6721091 11.3540727,18.4430182 11.2548,17.9957455 C11.2329818,17.8757455 11.2329818,17.7557455 11.2329818,17.6357455 L11.2329818,9.98847273 C11.2329818,9.41029091 11.4838909,9.08301818 11.9311636,9.07210909" id="Fill-3" fill="#0030A4"></path>
            <path d="M11.9535273,5.31883636 C11.5608,5.30792727 11.2542545,5.59156364 11.2444364,5.98429091 C11.2335273,6.38792727 11.5062545,6.68247273 11.9306182,6.69447273 C12.3015273,6.7152 12.6080727,6.42174545 12.6178909,6.02792727 C12.6298909,5.6472 12.3353455,5.33083636 11.9535273,5.31883636 M13.5462545,5.90792727 C13.5898909,6.83629091 12.9135273,7.58792727 11.9851636,7.63156364 C11.1124364,7.66429091 10.3488,6.9672 10.3171636,6.09338182 C10.2735273,5.17701818 10.9608,4.42538182 11.8662545,4.39156364 C12.7488,4.34792727 13.5026182,5.02429091 13.5462545,5.90792727" id="Fill-9" fill="#4A4A4A"></path>
            <path d="M10.3064727,9.85723636 C10.3173818,8.92996364 10.8519273,8.29723636 11.7126545,8.17723636 C12.6181091,8.04632727 13.4362909,8.66814545 13.5355636,9.58450909 C13.5464727,9.68269091 13.5562909,9.79178182 13.5562909,9.88996364 L13.5562909,17.7226909 C13.5562909,18.5190545 13.1962909,19.0972364 12.5428364,19.3590545 C11.5272,19.7736 10.3926545,19.0754182 10.3282909,17.9845091 C10.2835636,17.3517818 10.3064727,16.7190545 10.3064727,16.0754182 L10.3064727,13.8172364 L10.3064727,9.85723636 Z M12.6301091,9.97723636 C12.6301091,9.40996364 12.3682909,9.07178182 11.9308364,9.07178182 C11.4835636,9.08269091 11.2337455,9.40996364 11.2337455,9.98814545 L11.2337455,17.6354182 C11.2337455,17.7554182 11.2337455,17.8765091 11.2544727,17.9954182 C11.3537455,18.4426909 11.7999273,18.6717818 12.2264727,18.4754182 C12.5537455,18.3226909 12.6301091,18.0281455 12.6301091,17.7008727 L12.6301091,13.8063273 L12.6301091,9.97723636 Z" id="Fill-11" fill="#4A4A4A"></path>
            <path d="M11.9428364,1.20665455 C6.04101818,1.19574545 1.2072,6.00556364 1.19629091,11.9193818 C1.18647273,17.8201091 6.00829091,22.6539273 11.9199273,22.6648364 C17.8228364,22.6757455 22.6544727,17.8539273 22.6653818,11.9412 C22.6773818,6.03938182 17.8555636,1.21756364 11.9428364,1.20665455 M23.5937455,11.9302909 C23.5937455,18.3775636 18.3682909,23.6030182 11.9199273,23.5921091 C5.47265455,23.5812 0.270109091,18.3655636 0.270109091,11.9302909 C0.270109091,5.48301818 5.49556364,0.268472727 11.9428364,0.268472727 C18.3890182,0.278290909 23.5937455,5.49392727 23.5937455,11.9302909" id="Fill-13" fill="#4A4A4A"></path>
        </g>
    </g>
</svg>