<?xml version="1.0" encoding="UTF-8"?>
<svg width="24px" height="24px" viewBox="0 0 24 24" version="1.1" xmlns="http://www.w3.org/2000/svg" xmlns:xlink="http://www.w3.org/1999/xlink">
    <!-- Generator: Sketch 53.2 (72643) - https://sketchapp.com -->
    <title>icon_profile copy 27</title>
    <desc>Created with Sketch.</desc>
    <g id="icon_profile-copy-27" stroke="none" stroke-width="1" fill="none" fill-rule="evenodd">
        <g id="Group-10" transform="translate(-0.000000, -1.000000)">
            <g id="Group-7" transform="translate(0.000000, 0.480769)">
                <path d="M7.50413462,20.9790385 C7.81951923,20.6569231 7.82144231,20.4521154 7.49932692,20.1280769 C6.89451923,19.5194231 6.28875,18.9136538 5.68201923,18.3069231 C5.07048077,17.6934615 4.45701923,17.08 3.84067308,16.4723077 C3.60798077,16.2415385 3.38778846,16.2059615 3.18490385,16.4021154 C2.56471154,17.005 1.95990385,17.6251923 1.28394231,18.3011538 C2.78298077,19.7655769 4.26951923,21.2203846 5.79836538,22.7155769 C6.37432692,22.1280769 6.93875,21.5530769 7.50413462,20.9790385 M22.1849038,12.6703846 C22.5118269,12.2751923 22.4704808,11.755 22.1079808,11.4194231 C21.7627885,11.1011538 21.2195192,11.1107692 20.8752885,11.4607692 C19.9050962,12.4453846 18.9416346,13.4338462 17.9781731,14.4251923 C17.9243269,14.4790385 17.8695192,14.5723077 17.8772115,14.6405769 C17.9810577,15.6280769 17.1704808,16.6213462 15.9099038,16.5905769 C14.8127885,16.5646154 13.7127885,16.5857692 12.61375,16.5848077 C12.5204808,16.5848077 12.4233654,16.5886538 12.3320192,16.5684615 C12.1099038,16.5213462 11.9464423,16.3117308 11.9599038,16.1078846 C11.9733654,15.8905769 12.1454808,15.7175 12.3791346,15.6905769 C12.46375,15.68 12.5502885,15.6809615 12.6358654,15.6809615 C13.7175962,15.6809615 14.7993269,15.6828846 15.8800962,15.68 C16.0089423,15.68 16.13875,15.6771154 16.2647115,15.6530769 C16.7627885,15.5588462 17.07625,15.055 16.9502885,14.5665385 C16.8320192,14.1078846 16.5156731,13.8838462 15.9675962,13.8828846 C14.3791346,13.8809615 12.7925962,13.8838462 11.2041346,13.8790385 C11.0272115,13.8780769 10.8377885,13.8607692 10.67625,13.7963462 C9.67913462,13.3982692 8.65413462,13.3328846 7.61663462,13.5521154 C6.24163462,13.8415385 5.19932692,14.6011538 4.49932692,15.8569231 C5.67144231,17.0367308 6.83586538,18.2117308 8.01278846,19.3992308 C8.13875,19.2780769 8.21471154,19.2107692 8.28682692,19.1367308 C8.79163462,18.6146154 9.40028846,18.3751923 10.1310577,18.3819231 C12.0627885,18.3963462 13.9945192,18.3896154 15.92625,18.3857692 C16.7675962,18.3848077 17.5147115,18.1155769 18.1185577,17.5232692 C18.4291346,17.2184615 18.6906731,16.8636538 18.9714423,16.5271154 C20.0435577,15.2425 21.1175962,13.9588462 22.1849038,12.6703846 M23.2435577,11.6473077 C23.3685577,12.2415385 23.2656731,12.8117308 22.8445192,13.3088462 C21.5079808,14.8876923 20.2070192,16.4953846 18.8550962,18.0588462 C18.2002885,18.8165385 17.3127885,19.2146154 16.31375,19.2559615 C15.1752885,19.3040385 14.0320192,19.2838462 12.8925962,19.2886538 C11.9820192,19.2934615 11.0714423,19.3146154 10.16375,19.2819231 C9.49548077,19.2578846 9.04836538,19.6021154 8.64067308,20.0511538 C8.60221154,20.0953846 8.59451923,20.1963462 8.60990385,20.2598077 C8.72913462,20.7588462 8.57336538,21.1857692 8.23105769,21.5338462 C7.53875,22.2367308 6.83009615,22.9232692 6.12240385,23.6117308 C5.86759615,23.8598077 5.63298077,23.8607692 5.38105769,23.6078846 C3.72144231,21.9425 2.06663462,20.2742308 0.412788462,18.6021154 C0.185865385,18.3713462 0.181057692,18.1280769 0.408942308,17.8963462 C1.11182692,17.18 1.82048077,16.4694231 2.53490385,15.7636538 C2.80990385,15.4934615 3.15125,15.3578846 3.54163462,15.3934615 C3.68298077,15.4078846 3.75221154,15.3540385 3.82432692,15.2367308 C5.00605769,13.3165385 6.77528846,12.5030769 8.97913462,12.5357692 C9.65317308,12.5453846 10.3070192,12.6809615 10.9377885,12.9261538 C11.0464423,12.9684615 11.1714423,12.9771154 11.2897115,12.9771154 C12.7906731,12.98 14.2935577,12.9905769 15.7935577,12.9732692 C16.4550962,12.9655769 17.0320192,13.1136538 17.5281731,13.6876923 C17.58875,13.5944231 17.6310577,13.5069231 17.6974038,13.4386538 C18.5570192,12.5511538 19.4118269,11.6598077 20.2839423,10.7838462 C20.7695192,10.2982692 21.3849038,10.1857692 22.0243269,10.3694231 C22.6599038,10.5521154 23.1070192,10.9963462 23.2435577,11.6473077" id="Fill-1" fill="#4A4A4A"></path>
                <path d="M17.7175962,5.67605769 C17.7156731,3.43567308 15.8849038,1.60971154 13.6541346,1.62605769 C11.4127885,1.64432692 9.61663462,3.44625 9.61567308,5.67701923 C9.61471154,7.90298077 11.4281731,9.72317308 13.6560577,9.73278846 C15.8868269,9.74240385 17.7175962,7.91355769 17.7175962,5.67605769 M13.6791346,0.72125 C16.4108654,0.730865385 18.6589423,2.99336538 18.62625,5.69913462 C18.5935577,8.43567308 16.36375,10.6510577 13.6579808,10.63375 C10.9368269,10.6174038 8.70798077,8.38567308 8.70605769,5.67894231 C8.70317308,2.96067308 10.9618269,0.710673077 13.6791346,0.72125" id="Fill-3" fill="#4A4A4A"></path>
                <path d="M13.6545192,1.62615385 C15.8843269,1.60980769 17.7160577,3.43576923 17.7179808,5.67615385 C17.7179808,7.91365385 15.88625,9.74153846 13.6564423,9.73288462 C11.4285577,9.72326923 9.61509615,7.90307692 9.61605769,5.67711538 C9.61701923,3.44634615 11.4131731,1.64442308 13.6545192,1.62615385" id="Fill-5" fill="#0030A4"></path>
            </g>
            <path d="M14.7072115,5.43855769 C14.7091346,5.64432692 14.60625,5.76932692 14.4245192,5.78951923 C14.24375,5.81067308 14.1129808,5.69817308 14.0629808,5.50778846 C14.0331731,5.39432692 13.9889423,5.27125 13.9149038,5.18375 C13.8052885,5.05586538 13.6456731,5.04336538 13.49375,5.11836538 C13.3389423,5.19432692 13.2504808,5.32605769 13.2600962,5.50105769 C13.2697115,5.67413462 13.3591346,5.80201923 13.5283654,5.85682692 C13.5899038,5.87605769 13.6543269,5.88663462 13.71875,5.89144231 C14.2014423,5.92509615 14.5764423,6.24817308 14.6870192,6.72701923 C14.7831731,7.14048077 14.5543269,7.63567308 14.1543269,7.84048077 C14.0466346,7.89721154 14.0427885,7.96836538 14.0370192,8.06548077 C14.0206731,8.34432692 13.7533654,8.48951923 13.5399038,8.32605769 C13.4716346,8.27221154 13.4245192,8.16259615 13.4120192,8.07125 C13.3985577,7.97028846 13.3677885,7.92221154 13.2716346,7.88375 C12.8927885,7.73278846 12.6927885,7.43567308 12.6302885,7.04144231 C12.59375,6.80971154 12.6966346,6.64432692 12.8889423,6.61163462 C13.0774038,6.57990385 13.2197115,6.70971154 13.2572115,6.94528846 C13.2966346,7.19625 13.4543269,7.33375 13.6860577,7.31932692 C13.8918269,7.30682692 14.0504808,7.14528846 14.0591346,6.94144231 C14.0668269,6.72221154 13.9100962,6.54048077 13.6639423,6.52894231 C12.8918269,6.49240385 12.5120192,5.81259615 12.6591346,5.22990385 C12.7350962,4.92894231 12.9081731,4.69048077 13.1908654,4.56451923 C13.3447115,4.49625 13.41875,4.43182692 13.4110577,4.25201923 C13.4052885,4.08951923 13.4995192,3.95586538 13.6793269,3.92798077 C13.8302885,3.90298077 13.9408654,3.97605769 14.0100962,4.10682692 C14.0322115,4.14721154 14.0514423,4.20009615 14.0456731,4.24240385 C14.0100962,4.45009615 14.1264423,4.54817308 14.2850962,4.65298077 C14.5639423,4.83567308 14.6870192,5.11740385 14.7072115,5.43855769" id="Fill-8" fill="#FFFFFF"></path>
        </g>
    </g>
</svg>