<?xml version="1.0" encoding="UTF-8"?>
<svg width="24px" height="24px" viewBox="0 0 24 24" version="1.1" xmlns="http://www.w3.org/2000/svg" xmlns:xlink="http://www.w3.org/1999/xlink">
    <!-- Generator: Sketch 53.2 (72643) - https://sketchapp.com -->
    <title>icon_profile copy 37</title>
    <desc>Created with Sketch.</desc>
    <defs>
        <polygon id="path-1" points="0 24.4453571 18.0678571 24.4453571 18.0678571 0.000119047619 0 0.000119047619"></polygon>
    </defs>
    <g id="icon_profile-copy-37" stroke="none" stroke-width="1" fill="none" fill-rule="evenodd">
        <g id="Group-6" transform="translate(3.000000, 0.000000)">
            <path d="M16.6239286,10.9370238 C17.0417857,9.69892857 17.0644048,8.46083333 16.754881,7.19892857 C16.3144048,5.41321429 15.3858333,3.93702381 13.9334524,2.80607143 C12.1120238,1.38821429 10.0405952,0.865595238 7.75488095,1.2227381 C6.33821429,1.43702381 5.06440476,2.02035714 3.9572619,2.94892857 C2.57630952,4.10369048 1.69535714,5.56797619 1.29059524,7.31797619 C1.07630952,8.2822619 1.01678571,9.25845238 1.26797619,10.2465476 C1.57630952,11.5072619 2.11321429,12.675119 2.71916667,13.829881 C4.12392857,16.4608333 5.83821429,18.900119 7.62392857,21.2810714 C8.07630952,21.8894048 8.5525,22.4846429 9.04059524,23.1144048 C10.7917857,20.9013095 12.4334524,18.6632143 13.9096429,16.3179762 C14.9691667,14.6036905 15.9810714,12.8655952 16.6239286,10.9370238 M17.7667857,8.79416667 C17.7905952,9.61559524 17.6239286,10.4132143 17.3620238,11.1989286 C16.6834524,13.2453571 15.6120238,15.1036905 14.4691667,16.925119 C12.9572619,19.3417857 11.254881,21.6263095 9.4572619,23.8536905 C9.1477381,24.2465476 8.93345238,24.2465476 8.61321429,23.8536905 C6.00488095,20.579881 3.54059524,17.2227381 1.6477381,13.4727381 C1.11202381,12.400119 0.659642857,11.2941667 0.421547619,10.1155952 C0.195357143,8.98464286 0.279880952,7.86559524 0.600119048,6.77035714 C1.56559524,3.54416667 3.64892857,1.40130952 6.9227381,0.591785714 C10.3263095,-0.253452381 13.2786905,0.722738095 15.6358333,3.34178571 C17.004881,4.85369048 17.7310714,6.80607143 17.7667857,8.79416667" id="Fill-1" fill="#4A4A4A"></path>
            <mask id="mask-2" fill="white">
                <use xlink:href="#path-1"></use>
            </mask>
            <g id="Clip-4"></g>
            <path d="M8.25357143,12.2108333 L9.81428571,12.2108333 L9.81428571,9.85369048 L8.25357143,9.85369048 L8.25357143,12.2108333 Z M12.9452381,7.41321429 C12.9095238,7.3775 12.875,7.35369048 12.85,7.31797619 C11.6238095,6.3775 10.4095238,5.43702381 9.18333333,4.48464286 C9.06428571,4.38940476 8.98095238,4.41321429 8.87380952,4.50845238 C7.67261905,5.43702381 6.45714286,6.36559524 5.2547619,7.30607143 C5.21904762,7.34178571 5.18333333,7.3775 5.13690476,7.43702381 C5.18333333,7.44892857 5.20714286,7.46083333 5.23095238,7.46083333 C5.81428571,7.49654762 5.85,7.5322619 5.85,8.1275 L5.85,11.9370238 L5.85,12.2227381 L7.4452381,12.2227381 L7.4452381,11.9013095 C7.4452381,11.1394048 7.4452381,10.3775 7.45714286,9.61559524 C7.45714286,9.15130952 7.56428571,9.04416667 8.04047619,9.04416667 L10.0880952,9.04416667 C10.4940476,9.04416667 10.6238095,9.17511905 10.6238095,9.59178571 L10.6238095,11.925119 L10.6238095,12.2108333 L12.2190476,12.2108333 L12.2190476,11.9132143 L12.2190476,8.13940476 C12.2190476,7.5322619 12.2547619,7.49654762 12.8619048,7.46083333 C12.8857143,7.46083333 12.9095238,7.43702381 12.9452381,7.41321429 L12.9452381,7.41321429 Z M14.4571429,7.56797619 C14.5178571,7.69892857 14.5880952,7.86559524 14.552381,7.9727381 C14.5178571,8.09178571 14.35,8.21083333 14.2309524,8.2227381 C13.9333333,8.27035714 13.6357143,8.24654762 13.327381,8.24654762 L13.0166667,8.24654762 L13.0166667,8.56797619 L13.0166667,12.4132143 C13.0166667,12.8894048 12.8857143,13.0203571 12.4214286,13.0203571 L5.64761905,13.0203571 C5.1952381,13.0203571 5.05238095,12.8775 5.05238095,12.4370238 L5.05238095,8.57988095 L5.05238095,8.24654762 L4.01666667,8.24654762 C3.80357143,8.24654762 3.60119048,8.24654762 3.51666667,7.99654762 C3.42142857,7.75845238 3.56428571,7.60369048 3.74285714,7.46083333 C5.39761905,6.18702381 7.04047619,4.92511905 8.68333333,3.65130952 C8.98095238,3.42392857 9.1,3.42392857 9.39761905,3.65130952 C11.0285714,4.91202381 12.6595238,6.17511905 14.302381,7.43702381 C14.3630952,7.48464286 14.4333333,7.52035714 14.4571429,7.56797619 L14.4571429,7.56797619 Z" id="Fill-3" fill="#4A4A4A" mask="url(#mask-2)"></path>
            <path d="M12.8502381,7.31797619 C12.8752381,7.35369048 12.9097619,7.3775 12.9454762,7.41321429 C12.9097619,7.43702381 12.8859524,7.46083333 12.8621429,7.46083333 C12.255,7.49654762 12.2192857,7.5322619 12.2192857,8.13940476 L12.2192857,11.9132143 L12.2192857,12.2108333 L10.6240476,12.2108333 L10.6240476,11.925119 L10.6240476,9.59178571 C10.6240476,9.17511905 10.4942857,9.04416667 10.0883333,9.04416667 L8.04071429,9.04416667 C7.56452381,9.04416667 7.45738095,9.15130952 7.45738095,9.61559524 C7.44547619,10.3775 7.44547619,11.1394048 7.44547619,11.9013095 L7.44547619,12.2227381 L5.8502381,12.2227381 L5.8502381,11.9370238 L5.8502381,8.1275 C5.8502381,7.5322619 5.81452381,7.49654762 5.23119048,7.46083333 C5.20738095,7.46083333 5.18357143,7.44892857 5.13714286,7.43702381 C5.18357143,7.3775 5.21928571,7.34178571 5.255,7.30607143 C6.45738095,6.36559524 7.67166667,5.43702381 8.87404762,4.50845238 C8.98119048,4.41321429 9.06452381,4.38940476 9.18357143,4.48464286 C10.4097619,5.43702381 11.6240476,6.3775 12.8502381,7.31797619" id="Fill-5" fill="#0030A4" mask="url(#mask-2)"></path>
        </g>
    </g>
</svg>