<?xml version="1.0" encoding="UTF-8"?>
<svg width="24px" height="24px" viewBox="0 0 24 24" version="1.1" xmlns="http://www.w3.org/2000/svg" xmlns:xlink="http://www.w3.org/1999/xlink">
    <!-- Generator: Sketch 53.2 (72643) - https://sketchapp.com -->
    <title>icon_profile copy 19</title>
    <desc>Created with Sketch.</desc>
    <g id="icon_profile-copy-19" stroke="none" stroke-width="1" fill="none" fill-rule="evenodd">
        <g id="Group-11" transform="translate(2.000000, 0.000000)" fill="#6F7473">
            <path d="M21.61608,15.6782971 C21.7966514,15.8622971 21.8091086,16.0852686 21.6355086,16.2668686 C21.2422514,16.6760114 20.8297943,17.0657257 20.4412229,17.4462971 C19.8446514,16.8542971 19.2549371,16.2680114 18.6652229,15.6828686 C19.0583657,15.27944 19.4537943,14.8485829 19.8789371,14.4485829 C20.03768,14.3000114 20.2595086,14.3388686 20.4217943,14.4965829 C20.8239657,14.8862971 21.2229371,15.2806971 21.61608,15.6782971" id="Fill-1"></path>
            <path d="M18.0331543,16.3228343 C18.6091543,16.9138057 19.1805829,17.5000914 19.7360114,18.06912 C18.2960114,19.4919771 16.8388686,20.9319771 15.3988686,22.3548343 C14.8697257,21.8292343 14.2788686,21.2405486 13.7064114,20.67152 C15.1325829,19.2383771 16.57144,17.7925486 18.0331543,16.3228343" id="Fill-3"></path>
            <path d="M8.59430857,5.64291429 C8.59773714,5.43491429 8.49030857,5.2772 8.27202286,5.23251429 C8.17030857,5.21091429 8.06402286,5.20851429 7.96002286,5.20851429 C7.33145143,5.20634286 6.70402286,5.20737143 6.07545143,5.20737143 L5.61830857,5.20737143 C5.08573714,5.20737143 4.55202286,5.2028 4.01945143,5.20851429 C3.67888,5.21308571 3.48573714,5.37537143 3.48916571,5.63834286 C3.49156571,5.8988 3.68345143,6.04977143 4.02859429,6.05891429 C4.06630857,6.05994286 4.10402286,6.05994286 4.14173714,6.05994286 C5.40802286,6.05994286 6.67430857,6.05994286 7.94059429,6.05891429 C8.05385143,6.05891429 8.16916571,6.05434286 8.28002286,6.03251429 C8.48699429,5.99034286 8.59088,5.83834286 8.59430857,5.64291429 M10.2971657,19.3046286 C10.3051657,19.0634857 10.1737371,18.9114857 9.93030857,18.8726286 C9.83773714,18.8589143 9.74173714,18.8577714 9.64688,18.8577714 C8.94288,18.8566286 8.24002286,18.8566286 7.53602286,18.8566286 L4.19888,18.8566286 C4.12230857,18.8566286 4.04573714,18.8532 3.97030857,18.8589143 C3.67202286,18.8793714 3.49156571,19.0394857 3.48802286,19.2817714 C3.48573714,19.5354857 3.67430857,19.7069143 3.99088,19.7092 C4.96002286,19.7137714 5.93030857,19.7103429 6.90059429,19.7103429 C7.81259429,19.7103429 8.72573714,19.7114857 9.63888,19.7103429 C9.73373714,19.7103429 9.82985143,19.7114857 9.92345143,19.7000571 C10.1531657,19.6702286 10.2903086,19.5319429 10.2971657,19.3046286 M11.4869943,16.1125143 C11.5657371,16.0370857 11.5897371,15.7880571 11.5257371,15.7092 C11.42288,15.5823429 11.2263086,15.4645143 11.0685943,15.4623429 C9.88916571,15.4416571 8.70973714,15.4508 7.53145143,15.4508 L4.65030857,15.4508 C4.40345143,15.4508 4.15545143,15.4452 3.90859429,15.4553714 C3.66516571,15.4669143 3.51202286,15.6097714 3.49488,15.8462286 C3.47773714,16.0852 3.61716571,16.2383429 3.85488,16.2874857 C3.92802286,16.3023429 4.00459429,16.3057714 4.08002286,16.3057714 L8.13030857,16.3057714 C9.09156571,16.3057714 10.0514514,16.3137714 11.0114514,16.2976571 C11.17488,16.2954857 11.3727086,16.2234857 11.4869943,16.1125143 M14.9783086,9.05434286 C14.99088,8.9332 14.8354514,8.7732 14.7201371,8.66805714 C14.6560229,8.60851429 14.5223086,8.60977143 14.4194514,8.60977143 C10.9727086,8.60851429 7.52573714,8.60977143 4.07773714,8.61434286 C3.96688,8.61434286 3.84802286,8.63137143 3.74516571,8.67148571 C3.51202286,8.76291429 3.43088,9.01434286 3.54288,9.23948571 C3.65145143,9.45434286 3.84802286,9.47022857 4.05488,9.47022857 C5.78745143,9.46908571 7.52116571,9.47022857 9.25488,9.47022857 C10.95888,9.47022857 12.6640229,9.47022857 14.3681371,9.46908571 C14.4731657,9.46908571 14.6080229,9.49765714 14.6743086,9.44405714 C14.8034514,9.34108571 14.9645943,9.19605714 14.9783086,9.05434286 M15.0023086,12.4726286 C15.0125943,12.1766286 14.7943086,12.0325143 14.33488,12.0325143 C10.93488,12.0325143 7.53488,12.0325143 4.13488,12.0337714 C4.03088,12.0337714 3.92345143,12.0303429 3.82402286,12.0532 C3.61259429,12.1023429 3.46402286,12.2610857 3.50173714,12.4599429 C3.53030857,12.6073714 3.68002286,12.7480571 3.80802286,12.8543429 C3.87430857,12.9092 4.00802286,12.8896571 4.11202286,12.8896571 C5.82630857,12.8920571 7.54059429,12.8909143 9.25488,12.8909143 C10.9497371,12.8909143 12.6445943,12.8896571 14.3395657,12.8909143 C14.7783086,12.8920571 14.9920229,12.7594857 15.0023086,12.4726286 M11.5760229,23.9069143 C11.5681371,23.9182286 11.55888,23.9297714 11.55088,23.9410857 C11.5463086,23.9480571 11.5417371,23.9537714 11.5371657,23.9605143 L0.0811657143,23.9605143 L0.0811657143,0.110342857 L12.4457371,0.110342857 L12.4457371,6.06348571 L18.4125943,6.06348571 C18.4125943,8.63948571 18.3211657,12.1194857 18.3211657,14.6553714 L13.3201371,19.7114857 L13.2800229,19.8085143 C13.1257371,19.9629143 12.9714514,20.1182286 12.8171657,20.2726286 C12.7165943,20.3742286 12.6331657,20.5160571 12.5943086,20.6543429 C12.3543086,21.4966286 12.1325943,22.3446286 11.8937371,23.1869143 L11.6285943,23.8313714 C11.6114514,23.8577714 11.5943086,23.8829143 11.5760229,23.9069143" id="Fill-5"></path>
            <path d="M17.6274629,5.17204571 L13.3201486,5.17204571 L13.3201486,0.864617143 C14.7406057,2.28393143 16.2000343,3.74347429 17.6274629,5.17204571" id="Fill-7"></path>
            <path d="M13.2320343,21.5537486 C13.6788914,21.9948914 14.1086057,22.4200343 14.5668914,22.8726057 C13.9737486,23.0324914 13.3851771,23.1914629 12.7326057,23.3674629 C12.91432,22.7091771 13.0766057,22.1194629 13.2320343,21.5537486" id="Fill-9"></path>
        </g>
    </g>
</svg>