<?xml version="1.0" encoding="UTF-8"?>
<svg width="24px" height="24px" viewBox="0 0 24 24" version="1.1" xmlns="http://www.w3.org/2000/svg" xmlns:xlink="http://www.w3.org/1999/xlink">
    <!-- Generator: Sketch 53.2 (72643) - https://sketchapp.com -->
    <title>icon_profile copy 20</title>
    <desc>Created with Sketch.</desc>
    <g id="icon_profile-copy-20" stroke="none" stroke-width="1" fill="none" fill-rule="evenodd">
        <g id="Group-9" transform="translate(1.000000, 0.000000)" fill="#6F7473">
            <path d="M17.6318743,5.1796 L13.3038743,5.1796 L13.3038743,0.818457143 C14.7553029,2.28017143 16.2090171,3.74531429 17.6318743,5.1796" id="Fill-1"></path>
            <path d="M8.11067429,6.05505143 C8.41810286,6.05162286 8.58496,5.88819429 8.58610286,5.63448 C8.58610286,5.37962286 8.41924571,5.22990857 8.11181714,5.20933714 C8.05593143,5.20488 7.99753143,5.20705143 7.94164571,5.20705143 C6.66610286,5.20705143 5.39181714,5.20705143 4.11638857,5.20819429 C4.00336,5.20933714 3.88450286,5.20933714 3.77810286,5.24133714 C3.49467429,5.32476571 3.37238857,5.66990857 3.57696,5.87676571 C3.68210286,5.98305143 3.87410286,6.04705143 4.02953143,6.05162286 C4.69467429,6.06990857 5.36096,6.05962286 6.02736,6.05962286 L6.02736,6.05848 C6.72221714,6.05848 7.41696,6.06419429 8.11067429,6.05505143 L8.11067429,6.05505143 Z M10.2923886,19.2905943 C10.2946743,19.0321943 10.1163886,18.8767657 9.79524571,18.8574514 C9.74724571,18.8550514 9.69924571,18.8574514 9.65238857,18.8574514 C7.80793143,18.8561943 5.96324571,18.8561943 4.11981714,18.85848 C3.98838857,18.8596229 3.83193143,18.8539086 3.73353143,18.9191657 C3.62267429,18.99448 3.50496,19.1453371 3.49924571,19.2687657 C3.49364571,19.3910514 3.59753143,19.5533371 3.70153143,19.6356229 C3.79296,19.70648 3.95296,19.7076229 4.08210286,19.7076229 C5.01353143,19.7133371 5.94496,19.7110514 6.87753143,19.7110514 C7.84667429,19.7099086 8.81696,19.7133371 9.78610286,19.7087657 C10.1095314,19.7076229 10.2901029,19.5487657 10.2923886,19.2905943 L10.2923886,19.2905943 Z M11.3038171,16.25048 C11.4215314,16.1477371 11.5643886,15.9876229 11.5586743,15.85848 C11.55296,15.7270514 11.3975314,15.5819086 11.2752457,15.4836229 C11.2079314,15.4299086 11.07296,15.4516229 10.96896,15.4516229 C9.82610286,15.45048 8.68450286,15.45048 7.54164571,15.45048 L5.65593143,15.45048 C5.08450286,15.45048 4.51307429,15.4459086 3.94164571,15.4539086 C3.66267429,15.4574514 3.48324571,15.6219086 3.48553143,15.8620229 C3.48667429,16.1247657 3.64896,16.2539086 3.89010286,16.2996229 C3.94621714,16.3099086 4.00438857,16.30648 4.06153143,16.30648 C6.36553143,16.30648 8.67067429,16.30648 10.9758171,16.3041943 C11.0878171,16.3030514 11.23296,16.3121943 11.3038171,16.25048 L11.3038171,16.25048 Z M14.9826743,9.07333714 C14.99296,8.87333714 14.9083886,8.71790857 14.7061029,8.65848 C14.6066743,8.62990857 14.5015314,8.61162286 14.3987886,8.61048 C10.96096,8.60933714 7.52324571,8.61048 4.08553143,8.61505143 C3.96553143,8.61505143 3.81250286,8.61276571 3.73124571,8.68019429 C3.61924571,8.77276571 3.49696,8.93276571 3.50153143,9.05962286 C3.50496,9.18648 3.63867429,9.33733714 3.75638857,9.42190857 C3.84210286,9.48476571 3.99296,9.46876571 4.11524571,9.46876571 C5.81924571,9.47105143 7.52438857,9.46990857 9.22838857,9.46990857 L14.3426743,9.46990857 C14.4466743,9.46990857 14.5541029,9.47676571 14.6546743,9.45390857 C14.8523886,9.40933714 14.9712457,9.27676571 14.9826743,9.07333714 L14.9826743,9.07333714 Z M14.3198171,12.8916229 C14.77936,12.8916229 14.9941029,12.75448 14.9883886,12.4527657 C14.9826743,12.1613371 14.7839314,12.0334514 14.3346743,12.0334514 C10.9255314,12.0334514 7.51764571,12.0321943 4.10838857,12.0356229 C3.97810286,12.0356229 3.83867429,12.0481943 3.71981714,12.0939086 C3.50838857,12.1773371 3.43193143,12.4081943 3.51981714,12.61848 C3.62953143,12.8801943 3.85810286,12.8916229 4.09364571,12.8916229 C5.80793143,12.8905943 7.52096,12.8916229 9.23524571,12.8905943 C10.9301029,12.8905943 12.62496,12.8893371 14.3198171,12.8916229 L14.3198171,12.8916229 Z M18.3872457,6.06419429 L18.3872457,13.7201943 C15.6775314,13.7259086 13.6559314,14.8950514 12.7621029,17.5019086 C11.8672457,20.1145943 12.7621029,22.2699086 14.9312457,23.9567657 L0.0866742857,23.9567657 L0.0866742857,0.107622857 L12.4443886,0.107622857 L12.4443886,3.08819429 L12.4443886,6.06419429 L15.4306743,6.06419429 L18.3872457,6.06419429 Z" id="Fill-3"></path>
            <path d="M20.9643543,19.3065029 C20.9814971,19.0687886 20.8054971,18.8779314 20.5392114,18.8687886 C20.1117829,18.8527886 19.6832114,18.8619314 19.25464,18.8607886 C18.98264,18.8596457 18.7096114,18.8607886 18.40664,18.8607886 L18.40664,18.5145029 C18.4054971,17.9442171 18.40904,17.3739314 18.4044686,16.8025029 C18.4020686,16.4847886 18.24104,16.3099314 17.9747543,16.31336 C17.7117829,16.3156457 17.5574971,16.4939314 17.5518971,16.8127886 C17.5473257,17.1076457 17.5507543,17.4025029 17.5507543,17.69736 L17.5507543,18.8596457 L17.20904,18.8596457 C16.6477829,18.8607886 16.08664,18.8562171 15.5254971,18.8619314 C15.18504,18.8663886 14.9974971,19.02536 14.9998971,19.28936 C15.0009257,19.5579314 15.18264,19.7156457 15.5233257,19.7190743 C16.0936114,19.7247886 16.66504,19.7202171 17.2352114,19.72136 C17.33464,19.7225029 17.4340686,19.7326743 17.5507543,19.7396457 L17.5507543,20.0825029 C17.5507543,20.6436457 17.5507543,21.2047886 17.5518971,21.7659314 C17.5518971,22.0059314 17.6284686,22.2025029 17.88904,22.2585029 C18.1860686,22.3235314 18.4020686,22.1235314 18.4044686,21.7796457 C18.40904,21.1076457 18.4054971,20.4345029 18.4054971,19.72136 L18.7677829,19.72136 C19.3574971,19.7190743 19.9473257,19.7235314 20.53704,19.71336 C20.7883543,19.7087886 20.9461829,19.5647886 20.9643543,19.3065029 M18.0500686,14.5990743 C20.6763543,14.6630743 22.7176114,16.7865029 22.6729257,19.3830743 C22.6294971,21.9556457 20.40904,24.1259314 17.7141829,23.9705029 C15.2249257,23.8276457 13.2763543,21.7430743 13.2912114,19.24696 C13.3483543,16.6207886 15.4820686,14.53736 18.0500686,14.5990743" id="Fill-5"></path>
        </g>
    </g>
</svg>