<?xml version="1.0" encoding="UTF-8"?>
<svg width="24px" height="24px" viewBox="0 0 24 24" version="1.1" xmlns="http://www.w3.org/2000/svg" xmlns:xlink="http://www.w3.org/1999/xlink">
    <!-- Generator: Sketch 53.2 (72643) - https://sketchapp.com -->
    <title>icon_profile copy 33</title>
    <desc>Created with Sketch.</desc>
    <g id="icon_profile-copy-33" stroke="none" stroke-width="1" fill="none" fill-rule="evenodd">
        <g id="Group-23">
            <path d="M22.2517,20.6943 C22.8547,20.6943 23.1557,20.3933 23.1557,19.8153 C23.1677,17.4293 23.1677,15.0443 23.1557,12.6463 C23.1557,12.1283 22.9147,11.8633 22.4087,11.7913 C22.1317,11.7423 22.0107,11.6223 22.0227,11.3923 C22.0347,11.1753 22.1797,11.0673 22.4567,11.0803 C23.1917,11.1163 23.8297,11.6943 23.8547,12.4293 C23.8787,13.6943 23.8547,14.9603 23.8547,16.2363 L23.8787,16.2363 L23.8787,19.7663 C23.8657,20.5863 23.4807,21.1403 22.7577,21.3453 C22.6487,21.3813 22.5177,21.3933 22.3967,21.4053 L20.7817,21.4053 C20.5167,21.4053 20.3597,21.2733 20.3597,21.0563 C20.3717,20.8513 20.5287,20.7073 20.7817,20.6943 L22.2517,20.6943 Z" id="Fill-1" fill="#4A4A4A"></path>
            <path d="M15.1072,21.2012 C14.9382,20.9482 14.9502,20.7302 15.1302,20.6102 C15.3362,20.4662 15.5292,20.5382 15.7102,20.8152 C15.8182,20.9722 15.9262,21.1292 16.0712,21.3332 C16.4802,20.7302 16.8662,20.1522 17.2522,19.5742 C17.2992,19.5142 17.3482,19.4412 17.3962,19.3822 C17.5162,19.2372 17.6612,19.2012 17.8302,19.2852 C17.9992,19.3822 18.0462,19.5382 17.9992,19.7192 C17.9742,19.7912 17.9262,19.8512 17.8902,19.8992 C17.4082,20.6222 16.9262,21.3462 16.4442,22.0562 C16.1912,22.4302 15.9502,22.4302 15.6972,22.0682 C15.5042,21.7792 15.2992,21.4902 15.1072,21.2012" id="Fill-3" fill="#4A4A4A"></path>
            <path d="M14.6736,13.3213 L10.2506,13.3213 C9.8656,13.3213 9.6966,13.2133 9.6966,12.9713 C9.6856,12.7183 9.8776,12.5973 10.2636,12.5973 L19.0826,12.5973 C19.1796,12.5973 19.2766,12.6103 19.3716,12.6343 C19.5526,12.6823 19.6606,12.8273 19.6126,12.9953 C19.5766,13.1163 19.4446,13.2243 19.3356,13.2973 C19.2636,13.3443 19.1436,13.3213 19.0466,13.3213 L14.6736,13.3213 Z" id="Fill-5" fill="#4A4A4A"></path>
            <path d="M19.3719,9.5977 C19.3239,9.6457 19.2039,9.6337 19.1189,9.6337 L10.2149,9.6337 C10.1189,9.6337 9.9979,9.6457 9.9379,9.5977 C9.8299,9.5137 9.6969,9.3807 9.7089,9.2727 C9.7219,9.1637 9.8529,9.0317 9.9619,8.9477 C10.0339,8.8997 10.1549,8.9227 10.2509,8.9227 L14.6739,8.9227 L19.0469,8.9227 C19.1429,8.9227 19.2399,8.9227 19.3359,8.9357 C19.5169,8.9717 19.6489,9.0917 19.6129,9.2607 C19.6009,9.3927 19.4799,9.5137 19.3719,9.5977" id="Fill-7" fill="#4A4A4A"></path>
            <path d="M8.3953,7.8262 L8.3953,16.1642 C8.1553,16.1642 7.9253,16.1882 7.7083,16.1642 C7.2273,16.0922 6.9613,15.7192 6.9613,15.1522 L6.9613,10.4292 L6.9613,8.9232 C6.9613,8.1642 7.2993,7.8392 8.0583,7.8262 L8.3953,7.8262 Z" id="Fill-9" fill="#0030A4"></path>
            <path d="M21.408,15.1641 C21.408,16.0321 20.963,16.6581 20.204,16.8391 C20.035,16.8751 19.866,16.8881 19.697,16.8881 L7.974,16.8881 C6.914,16.8881 6.251,16.2251 6.251,15.1641 L6.251,12.0311 L6.251,8.8871 C6.251,7.7901 6.914,7.1281 8.011,7.1281 L15.505,7.1281 L16.022,7.1281 C16.131,7.1281 16.263,7.1151 16.336,7.1761 C16.432,7.2721 16.529,7.4171 16.529,7.5371 C16.516,7.6341 16.372,7.7541 16.263,7.8141 C16.191,7.8621 16.071,7.8261 15.974,7.8261 L9.48,7.8261 L9.142,7.8261 L9.142,16.1771 L9.444,16.1771 L19.625,16.1771 C20.372,16.1771 20.698,15.8631 20.698,15.1281 L20.698,8.8991 C20.698,8.1521 20.36,7.8391 19.601,7.8261 C18.987,7.8261 18.36,7.8391 17.733,7.8261 C17.613,7.8261 17.469,7.8141 17.408,7.7421 C17.336,7.6701 17.288,7.5501 17.288,7.4651 C17.288,7.4411 17.288,7.4171 17.3,7.4051 C17.348,7.2841 17.505,7.1401 17.625,7.1401 C18.432,7.1281 19.24,7.0921 20.035,7.1641 C20.818,7.2361 21.348,7.8511 21.396,8.6451 C21.421,9.1761 21.408,9.7191 21.408,10.2481 L21.408,15.1641 Z M8.395,16.1641 L8.395,7.8261 L8.058,7.8261 C7.3,7.8391 6.962,8.1641 6.962,8.9231 L6.962,10.4291 L6.962,15.1521 C6.962,15.7191 7.227,16.0921 7.709,16.1641 C7.926,16.1881 8.155,16.1641 8.395,16.1641 L8.395,16.1641 Z" id="Fill-11" fill="#4A4A4A"></path>
            <path d="M5.2146,3.6934 C5.2996,3.6814 5.3836,3.6814 5.4806,3.6814 L10.0336,3.6814 L14.6496,3.6814 C14.7456,3.6814 14.8656,3.6574 14.9386,3.7064 C15.0466,3.7904 15.1796,3.9114 15.1796,4.0314 C15.1916,4.1394 15.0586,4.2724 14.9626,4.3444 C14.8906,4.4044 14.7696,4.3924 14.6736,4.3924 L5.4196,4.3924 C5.3476,4.3924 5.2386,4.4044 5.1906,4.3684 C5.0816,4.2724 4.9496,4.1514 4.9256,4.0194 C4.8896,3.8504 5.0226,3.7174 5.2146,3.6934" id="Fill-13" fill="#4A4A4A"></path>
            <path d="M3.6482,4.4648 C3.6482,5.0918 3.9252,5.3678 4.5522,5.3678 L15.5522,5.3678 C16.1912,5.3678 16.4572,5.1038 16.4572,4.4528 L16.4572,2.8148 C16.4572,2.7298 16.4442,2.6098 16.4802,2.5488 C16.5652,2.4528 16.6732,2.3198 16.7822,2.3088 C16.8902,2.2958 17.0222,2.4168 17.1192,2.5008 C17.1552,2.5368 17.1682,2.6208 17.1682,2.6818 C17.1682,3.3808 17.1912,4.0788 17.1432,4.7668 C17.0832,5.5008 16.5412,6.0068 15.8052,6.0678 C15.6972,6.0788 15.6012,6.0788 15.5042,6.0788 L4.5882,6.0788 C3.9502,6.0788 3.4192,5.8868 3.1302,5.2958 C3.0092,5.0678 2.9502,4.8028 2.9372,4.5488 C2.9372,4.1148 2.9252,3.6818 2.9252,3.2478 C2.9252,2.7538 2.9252,2.2598 2.9372,1.7538 C2.9502,1.1628 3.1782,0.6568 3.7452,0.3808 C3.9012,0.3078 4.1062,0.2598 4.2872,0.2598 L10.0702,0.2598 C11.9982,0.2598 13.9142,0.2718 15.8412,0.2478 C16.3842,0.2478 16.8662,0.6698 17.0462,1.0908 C17.1192,1.2728 17.0712,1.4288 16.9022,1.5258 C16.8302,1.5618 16.7692,1.5848 16.6972,1.5848 C16.5882,1.5848 16.4932,1.5258 16.4322,1.4168 C16.2032,0.9708 15.8182,0.9098 15.3722,0.9098 L4.6482,0.9098 C3.9252,0.9098 3.6482,1.1758 3.6482,1.8868 L3.6482,4.4648 Z" id="Fill-15" fill="#4A4A4A"></path>
            <path d="M13.95,20.5381 C10.745,20.5261 7.553,20.5261 4.347,20.5261 C3.805,20.5261 3.262,20.5381 2.709,20.5381 C2.612,20.5381 2.479,20.5381 2.407,20.4771 C2.311,20.3931 2.19,20.2611 2.203,20.1521 C2.203,20.0441 2.335,19.9111 2.443,19.8511 C2.528,19.7911 2.673,19.8151 2.781,19.8151 L8.359,19.8151 L13.974,19.8151 C14.384,19.8151 14.553,19.9241 14.553,20.1651 C14.564,20.4181 14.36,20.5381 13.95,20.5381" id="Fill-17" fill="#4A4A4A"></path>
            <path d="M5.323,12.3809 C4.287,12.3809 3.239,12.3939 2.19,12.3809 C1.19,12.3809 0.515,11.7059 0.515,10.6939 C0.504,9.6579 0.515,8.6339 0.515,7.6099 C0.515,6.5729 0.504,5.5499 0.515,4.5259 C0.515,3.7179 0.949,3.1279 1.684,2.9229 C1.829,2.8869 1.986,2.8509 2.131,2.8869 C2.251,2.9229 2.384,3.0429 2.431,3.1519 C2.443,3.1879 2.443,3.2239 2.443,3.2479 C2.443,3.3809 2.359,3.4769 2.215,3.5259 C2.167,3.5489 2.094,3.5729 2.034,3.5729 C1.515,3.6569 1.226,3.9709 1.226,4.5009 C1.215,6.5729 1.215,8.6579 1.226,10.7419 C1.226,11.3329 1.588,11.6699 2.226,11.6699 C3.203,11.6829 4.178,11.6699 5.154,11.6699 L5.336,11.6699 C5.648,11.6829 5.817,11.8029 5.805,12.0309 C5.805,12.2479 5.625,12.3809 5.323,12.3809" id="Fill-19" fill="#4A4A4A"></path>
            <path d="M19.7576,19.7666 C19.7816,20.6216 19.7706,21.4776 19.7576,22.3326 C19.7576,23.5016 19.0236,24.2486 17.8546,24.2486 L9.9866,24.2486 L2.1906,24.2486 C1.2266,24.2486 0.5756,23.7796 0.3226,22.8996 C0.2756,22.7186 0.2626,22.5146 0.2506,22.3216 L0.2506,19.8026 C0.2626,18.6346 1.0226,17.8636 2.1906,17.8636 L9.4316,17.8636 C9.5166,17.8636 9.6366,17.8516 9.6856,17.8876 C9.7936,17.9836 9.9386,18.1276 9.9386,18.2486 C9.9386,18.3456 9.7936,18.4776 9.6726,18.5496 C9.6006,18.5986 9.4676,18.5746 9.3596,18.5746 C6.9746,18.5856 4.5886,18.5746 2.2026,18.5856 C1.5756,18.5856 1.1786,18.8386 1.0226,19.3576 C0.9856,19.5016 0.9736,19.6586 0.9736,19.8026 C0.9616,20.6346 0.9616,21.4656 0.9736,22.2966 C0.9736,23.1046 1.4066,23.5376 2.2146,23.5376 L17.7936,23.5376 C18.6246,23.5376 19.0466,23.1286 19.0466,22.2856 C19.0466,21.4906 19.0236,20.6826 19.0596,19.8746 C19.0956,19.0326 18.5766,18.5626 17.7576,18.5746 C15.6016,18.5986 13.4326,18.5856 11.2756,18.5856 C10.8536,18.5856 10.6966,18.4776 10.6856,18.2246 C10.6856,17.9716 10.8536,17.8636 11.2876,17.8636 L17.8296,17.8636 C18.6016,17.8636 19.2276,18.1636 19.5766,18.8876 C19.6966,19.1406 19.7456,19.4656 19.7576,19.7666" id="Fill-21" fill="#4A4A4A"></path>
        </g>
    </g>
</svg>