<?xml version="1.0" encoding="UTF-8"?>
<svg width="24px" height="24px" viewBox="0 0 24 24" version="1.1" xmlns="http://www.w3.org/2000/svg" xmlns:xlink="http://www.w3.org/1999/xlink">
    <!-- Generator: Sketch 53.2 (72643) - https://sketchapp.com -->
    <title>icon_profile copy 8</title>
    <desc>Created with Sketch.</desc>
    <g id="icon_profile-copy-8" stroke="none" stroke-width="1" fill="none" fill-rule="evenodd">
        <g id="baseline-assignment_ind-24px-(1)">
            <polygon id="Path" points="0 0 24 0 24 24 0 24"></polygon>
            <path d="M20.2,2.4 L15.184,2.4 C14.68,1.008 13.36,0 11.8,0 C10.24,0 8.92,1.008 8.416,2.4 L3.4,2.4 C2.08,2.4 1,3.48 1,4.8 L1,21.6 C1,22.92 2.08,24 3.4,24 L20.2,24 C21.52,24 22.6,22.92 22.6,21.6 L22.6,4.8 C22.6,3.48 21.52,2.4 20.2,2.4 Z M11.8,2.4 C12.46,2.4 13,2.94 13,3.6 C13,4.26 12.46,4.8 11.8,4.8 C11.14,4.8 10.6,4.26 10.6,3.6 C10.6,2.94 11.14,2.4 11.8,2.4 Z M11.8,7.2 C13.792,7.2 15.4,8.808 15.4,10.8 C15.4,12.792 13.792,14.4 11.8,14.4 C9.808,14.4 8.2,12.792 8.2,10.8 C8.2,8.808 9.808,7.2 11.8,7.2 Z M19,21.6 L4.6,21.6 L4.6,19.92 C4.6,17.52 9.4,16.2 11.8,16.2 C14.2,16.2 19,17.52 19,19.92 L19,21.6 Z" id="Shape" fill="#4A4A4A" fill-rule="nonzero"></path>
        </g>
    </g>
</svg>