<?xml version="1.0" encoding="UTF-8"?>
<svg width="24px" height="24px" viewBox="0 0 24 24" version="1.1" xmlns="http://www.w3.org/2000/svg" xmlns:xlink="http://www.w3.org/1999/xlink">
    <!-- Generator: Sketch 53.2 (72643) - https://sketchapp.com -->
    <title>icon_profile copy 11</title>
    <desc>Created with Sketch.</desc>
    <g id="icon_profile-copy-11" stroke="none" stroke-width="1" fill="none" fill-rule="evenodd">
        <g id="baseline-attach_money-24px">
            <path d="M12.3066667,10.5333333 C9.28,9.74666667 8.30666667,8.93333333 8.30666667,7.66666667 C8.30666667,6.21333333 9.65333333,5.2 11.9066667,5.2 C14.28,5.2 15.16,6.33333333 15.24,8 L18.1866667,8 C18.0933333,5.70666667 16.6933333,3.6 13.9066667,2.92 L13.9066667,0 L9.90666667,0 L9.90666667,2.88 C7.32,3.44 5.24,5.12 5.24,7.69333333 C5.24,10.7733333 7.78666667,12.3066667 11.5066667,13.2 C14.84,14 15.5066667,15.1733333 15.5066667,16.4133333 C15.5066667,17.3333333 14.8533333,18.8 11.9066667,18.8 C9.16,18.8 8.08,17.5733333 7.93333333,16 L5,16 C5.16,18.92 7.34666667,20.56 9.90666667,21.1066667 L9.90666667,24 L13.9066667,24 L13.9066667,21.1333333 C16.5066667,20.64 18.5733333,19.1333333 18.5733333,16.4 C18.5733333,12.6133333 15.3333333,11.32 12.3066667,10.5333333 Z" id="Path" fill="#9EA2A2" fill-rule="nonzero"></path>
            <polygon id="Path" points="0 0 24 0 24 24 0 24"></polygon>
        </g>
    </g>
</svg>