<?xml version="1.0" encoding="UTF-8"?>
<svg width="24px" height="24px" viewBox="0 0 24 24" version="1.1" xmlns="http://www.w3.org/2000/svg" xmlns:xlink="http://www.w3.org/1999/xlink">
    <!-- Generator: Sketch 53.2 (72643) - https://sketchapp.com -->
    <title>icon_profile copy 6</title>
    <desc>Created with Sketch.</desc>
    <g id="icon_profile-copy-6" stroke="none" stroke-width="1" fill="none" fill-rule="evenodd">
        <path d="M24,11.5833333 L20,11.5833333 L18,11.5833333 L18,16.1666667 L15,16.1666667 L15,13.4166667 L15,11.5833333 L11,11.5833333 L11,7 L10,7 L5,7 L4,7 L4,11.5833333 L0,11.5833333 L0,3 C-1.3527075e-16,1.8954305 0.8954305,1 2,1 L22,1 C23.1045695,1 24,1.8954305 24,3 L24,11.5833333 Z M24,13.4166667 L24,21 C24,22.1045695 23.1045695,23 22,23 L2,23 C0.8954305,23 1.3527075e-16,22.1045695 0,21 L0,13.4166667 L5,13.4166667 L6,13.4166667 L6,8.83333333 L9,8.83333333 L9,13.4166667 L10,13.4166667 L13,13.4166667 L13,18 L14,18 L19,18 L20,18 L20,13.4166667 L24,13.4166667 Z" id="Combined-Shape" fill="#9EA2A2"></path>
    </g>
</svg>